<svg width="52" height="52" viewBox="0 0 52 52" fill="none" xmlns="http://www.w3.org/2000/svg">
<g clip-path="url(#clip0_42_2528)">
<circle cx="25.9998" cy="26.0001" r="18" fill="#F7E9C5" fill-opacity="0.4"/>
<path fill-rule="evenodd" clip-rule="evenodd" d="M25.9998 42.7587C35.2554 42.7587 42.7585 35.2556 42.7585 26.0001C42.7585 16.7446 35.2554 9.2415 25.9998 9.2415C16.7443 9.2415 9.24123 16.7446 9.24123 26.0001C9.24123 35.2556 16.7443 42.7587 25.9998 42.7587ZM25.9998 44.0001C35.941 44.0001 43.9998 35.9412 43.9998 26.0001C43.9998 16.059 35.941 8.00012 25.9998 8.00012C16.0587 8.00012 7.99985 16.059 7.99985 26.0001C7.99985 35.9412 16.0587 44.0001 25.9998 44.0001Z" fill="#F7E9C5"/>
</g>
<rect x="-0.000297546" y="0.00012207" width="52" height="52" rx="26" fill="#9D9A92"/>
<path fill-rule="evenodd" clip-rule="evenodd" d="M25.9997 52.0001C40.3591 52.0001 51.9997 40.3595 51.9997 26.0001C51.9997 11.6407 40.3591 0.00012207 25.9997 0.00012207C11.6403 0.00012207 -0.000297546 11.6407 -0.000297546 26.0001C-0.000297546 40.3595 11.6403 52.0001 25.9997 52.0001ZM25.9996 45.067C36.5299 45.067 45.0663 36.5306 45.0663 26.0003C45.0663 15.47 36.5299 6.93354 25.9996 6.93354C15.4694 6.93354 6.93302 15.47 6.93302 26.0003C6.93302 36.5306 15.4694 45.067 25.9996 45.067Z" fill="url(#paint0_linear_42_2528)"/>
<path d="M45.0664 26.0002C45.0664 36.5305 36.53 45.0669 25.9998 45.0669C15.4696 45.0669 6.93316 36.5305 6.93316 26.0002C6.93316 15.4699 15.4696 6.93347 25.9998 6.93347C36.53 6.93347 45.0664 15.4699 45.0664 26.0002Z" fill="url(#paint1_linear_42_2528)"/>
<path d="M50.5461 17.428C49.2625 13.7523 47.1698 10.4118 44.4224 7.65312L42.3038 9.76301C44.7353 12.2045 46.5873 15.1608 47.7233 18.4138L50.5461 17.428Z" fill="white" fill-opacity="0.8"/>
<path d="M1.45352 34.572C2.73714 38.2477 4.82987 41.5882 7.57724 44.3469L9.69584 42.237C7.26442 39.7955 5.41235 36.8392 4.27635 33.5862L1.45352 34.572Z" fill="white" fill-opacity="0.8"/>
<path d="M1.45352 17.428C2.73714 13.7523 4.82987 10.4118 7.57725 7.65311L9.69584 9.76301C7.26442 12.2045 5.41235 15.1608 4.27635 18.4138L1.45352 17.428Z" fill="white" fill-opacity="0.8"/>
<path d="M50.5461 34.572C49.2625 38.2477 47.1698 41.5882 44.4224 44.3469L42.3038 42.237C44.7353 39.7955 46.5873 36.8392 47.7233 33.5862L50.5461 34.572Z" fill="white" fill-opacity="0.8"/>
<path d="M20.24 0.646017C22.1299 0.216685 24.0618 0 25.9999 0C27.9379 0 29.8698 0.216685 31.7597 0.646017L31.0973 3.56173C29.4248 3.18177 27.715 2.99 25.9999 2.99C24.2847 2.99 22.5749 3.18177 20.9024 3.56173L20.24 0.646017Z" fill="white" fill-opacity="0.8"/>
<path d="M31.7596 51.354C29.8698 51.7833 27.9378 52 25.9998 52C24.0618 52 22.1299 51.7833 20.24 51.354L20.9024 48.4383C22.5749 48.8182 24.2847 49.01 25.9998 49.01C27.715 49.01 29.4247 48.8182 31.0973 48.4383L31.7596 51.354Z" fill="white" fill-opacity="0.8"/>
<path d="M7.95981 19.7081C10.5673 12.2539 17.667 6.8907 25.9998 6.8907C34.3336 6.8907 41.4339 12.2553 44.0406 19.7109L45.4189 19.2298C42.6192 11.1992 34.9848 5.43469 25.9998 5.43469C17.0155 5.43469 9.38169 11.1981 6.58135 19.2276L7.95981 19.7081Z" fill="white" fill-opacity="0.6"/>
<path d="M44.0405 32.2896C41.4337 39.745 34.3334 45.1094 25.9997 45.1094C17.6671 45.1094 10.5676 39.7465 7.95994 32.2926L6.58173 32.7738C9.38245 40.8026 17.016 46.5654 25.9997 46.5654C34.9845 46.5654 42.6185 40.8014 45.4185 32.7713L44.0405 32.2896Z" fill="white" fill-opacity="0.6"/>
<path d="M51.9911 26.6761C51.9968 26.4515 51.9997 26.2261 51.9997 26.0001C51.9997 11.6407 40.3591 0.00012207 25.9997 0.00012207C11.6403 0.00012207 -0.000297546 11.6407 -0.000297546 26.0001C-0.000297546 26.2261 0.00258642 26.4515 0.00831956 26.6761C0.366824 12.6292 11.8663 1.35212 25.9997 1.35212C40.1331 1.35212 51.6326 12.6292 51.9911 26.6761Z" fill="white" fill-opacity="0.3"/>
<path d="M0.00846441 25.324C0.00273167 25.5486 -0.000152568 25.774 -0.000152588 26C-0.000153843 40.3594 11.6404 52 25.9998 52C40.3592 52 51.9998 40.3594 51.9998 26C51.9998 25.774 51.997 25.5486 51.9912 25.324C51.6327 39.371 40.1332 50.648 25.9998 50.648C11.8665 50.648 0.366975 39.3709 0.00846441 25.324Z" fill="black" fill-opacity="0.2"/>
<path d="M35.3568 34.8296C34.3445 34.8296 33.3392 34.6978 32.3408 34.4344C31.3562 34.157 30.5104 33.7688 29.8032 33.2696L31.1344 30.6904C31.689 31.0925 32.3269 31.4115 33.048 31.6472C33.7829 31.8829 34.5248 32.0008 35.2736 32.0008C36.1194 32.0008 36.785 31.8344 37.2704 31.5016C37.7557 31.1688 37.9984 30.7043 37.9984 30.108C37.9984 29.7336 37.9013 29.4008 37.7072 29.1096C37.513 28.8184 37.1664 28.5965 36.6672 28.444C36.1818 28.2915 35.4954 28.2152 34.608 28.2152H30.8848L31.6336 20.02H40.5152V22.724H32.84L34.5872 21.1848L34.0672 27.0296L32.32 25.4904H35.3984C36.8405 25.4904 37.9984 25.6915 38.872 26.0936C39.7594 26.4818 40.4042 27.0157 40.8064 27.6952C41.2085 28.3747 41.4096 29.1443 41.4096 30.004C41.4096 30.8637 41.1946 31.6611 40.7648 32.396C40.3349 33.1171 39.6693 33.7064 38.768 34.164C37.8805 34.6077 36.7434 34.8296 35.3568 34.8296Z" fill="black" fill-opacity="0.3"/>
<path d="M26.8763 34.7464C26.3216 34.7464 25.8432 34.5592 25.4411 34.1848C25.0528 33.7965 24.8587 33.3043 24.8587 32.708C24.8587 32.1117 25.0528 31.6333 25.4411 31.2728C25.8432 30.8984 26.3216 30.7112 26.8763 30.7112C27.4448 30.7112 27.9232 30.8984 28.3115 31.2728C28.6997 31.6333 28.8939 32.1117 28.8939 32.708C28.8939 33.3043 28.6997 33.7965 28.3115 34.1848C27.9232 34.5592 27.4448 34.7464 26.8763 34.7464Z" fill="black" fill-opacity="0.3"/>
<path d="M17.0855 34.8296C15.8929 34.8296 14.8252 34.5384 13.8823 33.956C12.9393 33.3597 12.1975 32.5 11.6567 31.3768C11.1159 30.2536 10.8455 28.8947 10.8455 27.3C10.8455 25.7053 11.1159 24.3464 11.6567 23.2232C12.1975 22.1 12.9393 21.2472 13.8823 20.6648C14.8252 20.0685 15.8929 19.7704 17.0855 19.7704C18.2919 19.7704 19.3596 20.0685 20.2887 20.6648C21.2316 21.2472 21.9735 22.1 22.5142 23.2232C23.0551 24.3464 23.3255 25.7053 23.3255 27.3C23.3255 28.8947 23.0551 30.2536 22.5142 31.3768C21.9735 32.5 21.2316 33.3597 20.2887 33.956C19.3596 34.5384 18.2919 34.8296 17.0855 34.8296ZM17.0855 31.98C17.654 31.98 18.1463 31.8205 18.5623 31.5016C18.9921 31.1827 19.3249 30.6765 19.5606 29.9832C19.8103 29.2899 19.9351 28.3955 19.9351 27.3C19.9351 26.2045 19.8103 25.3101 19.5606 24.6168C19.3249 23.9235 18.9921 23.4173 18.5623 23.0984C18.1463 22.7795 17.654 22.62 17.0855 22.62C16.5308 22.62 16.0385 22.7795 15.6087 23.0984C15.1927 23.4173 14.8599 23.9235 14.6103 24.6168C14.3745 25.3101 14.2567 26.2045 14.2567 27.3C14.2567 28.3955 14.3745 29.2899 14.6103 29.9832C14.8599 30.6765 15.1927 31.1827 15.6087 31.5016C16.0385 31.8205 16.5308 31.98 17.0855 31.98Z" fill="black" fill-opacity="0.3"/>
<path d="M35.3568 33.5297C34.3445 33.5297 33.3392 33.3979 32.3408 33.1345C31.3562 32.8571 30.5104 32.4689 29.8032 31.9697L31.1344 29.3905C31.689 29.7926 32.3269 30.1115 33.048 30.3473C33.7829 30.583 34.5248 30.7009 35.2736 30.7009C36.1194 30.7009 36.785 30.5345 37.2704 30.2017C37.7557 29.8689 37.9984 29.4043 37.9984 28.8081C37.9984 28.4337 37.9013 28.1009 37.7072 27.8097C37.513 27.5185 37.1664 27.2966 36.6672 27.1441C36.1818 26.9915 35.4954 26.9153 34.608 26.9153H30.8848L31.6336 18.7201H40.5152V21.4241H32.84L34.5872 19.8849L34.0672 25.7297L32.32 24.1905H35.3984C36.8405 24.1905 37.9984 24.3915 38.872 24.7937C39.7594 25.1819 40.4042 25.7158 40.8064 26.3953C41.2085 27.0747 41.4096 27.8443 41.4096 28.7041C41.4096 29.5638 41.1946 30.3611 40.7648 31.0961C40.3349 31.8171 39.6693 32.4065 38.768 32.8641C37.8805 33.3078 36.7434 33.5297 35.3568 33.5297Z" fill="white"/>
<path d="M26.8763 33.4465C26.3216 33.4465 25.8432 33.2593 25.4411 32.8849C25.0528 32.4966 24.8587 32.0043 24.8587 31.4081C24.8587 30.8118 25.0528 30.3334 25.4411 29.9729C25.8432 29.5985 26.3216 29.4113 26.8763 29.4113C27.4448 29.4113 27.9232 29.5985 28.3115 29.9729C28.6997 30.3334 28.8939 30.8118 28.8939 31.4081C28.8939 32.0043 28.6997 32.4966 28.3115 32.8849C27.9232 33.2593 27.4448 33.4465 26.8763 33.4465Z" fill="white"/>
<path d="M17.0855 33.5297C15.8929 33.5297 14.8252 33.2385 13.8823 32.6561C12.9393 32.0598 12.1975 31.2001 11.6567 30.0769C11.1159 28.9537 10.8455 27.5947 10.8455 26.0001C10.8455 24.4054 11.1159 23.0465 11.6567 21.9233C12.1975 20.8001 12.9393 19.9473 13.8823 19.3649C14.8252 18.7686 15.8929 18.4705 17.0855 18.4705C18.2919 18.4705 19.3596 18.7686 20.2887 19.3649C21.2316 19.9473 21.9735 20.8001 22.5142 21.9233C23.0551 23.0465 23.3255 24.4054 23.3255 26.0001C23.3255 27.5947 23.0551 28.9537 22.5142 30.0769C21.9735 31.2001 21.2316 32.0598 20.2887 32.6561C19.3596 33.2385 18.2919 33.5297 17.0855 33.5297ZM17.0855 30.6801C17.654 30.6801 18.1463 30.5206 18.5623 30.2017C18.9921 29.8827 19.3249 29.3766 19.5606 28.6833C19.8103 27.9899 19.9351 27.0955 19.9351 26.0001C19.9351 24.9046 19.8103 24.0102 19.5606 23.3169C19.3249 22.6235 18.9921 22.1174 18.5623 21.7985C18.1463 21.4795 17.654 21.3201 17.0855 21.3201C16.5308 21.3201 16.0385 21.4795 15.6087 21.7985C15.1927 22.1174 14.8599 22.6235 14.6103 23.3169C14.3745 24.0102 14.2567 24.9046 14.2567 26.0001C14.2567 27.0955 14.3745 27.9899 14.6103 28.6833C14.8599 29.3766 15.1927 29.8827 15.6087 30.2017C16.0385 30.5206 16.5308 30.6801 17.0855 30.6801Z" fill="white"/>
<defs>
<linearGradient id="paint0_linear_42_2528" x1="25.9997" y1="0.512381" x2="25.9951" y2="52.0001" gradientUnits="userSpaceOnUse">
<stop stop-opacity="0"/>
<stop offset="1" stop-opacity="0.3"/>
</linearGradient>
<linearGradient id="paint1_linear_42_2528" x1="37.837" y1="11.262" x2="11.2572" y2="37.8441" gradientUnits="userSpaceOnUse">
<stop stop-opacity="0.25"/>
<stop offset="1" stop-opacity="0"/>
</linearGradient>
<clipPath id="clip0_42_2528">
<rect width="36" height="36" fill="white" transform="translate(7.99985 8.00012)"/>
</clipPath>
</defs>
</svg>
