<svg width="52" height="52" viewBox="0 0 52 52" fill="none" xmlns="http://www.w3.org/2000/svg">
<rect x="-0.000305176" y="0.00012207" width="52" height="52" rx="26" fill="#FF8E09"/>
<path fill-rule="evenodd" clip-rule="evenodd" d="M25.9997 52.0001C40.3591 52.0001 51.9997 40.3595 51.9997 26.0001C51.9997 11.6407 40.3591 0.00012207 25.9997 0.00012207C11.6403 0.00012207 -0.000305176 11.6407 -0.000305176 26.0001C-0.000305176 40.3595 11.6403 52.0001 25.9997 52.0001ZM25.9996 45.067C36.5299 45.067 45.0663 36.5306 45.0663 26.0003C45.0663 15.47 36.5299 6.93354 25.9996 6.93354C15.4694 6.93354 6.93301 15.47 6.93301 26.0003C6.93301 36.5306 15.4694 45.067 25.9996 45.067Z" fill="url(#paint0_linear_42_2547)"/>
<path d="M45.0664 26.0002C45.0664 36.5305 36.53 45.0669 25.9998 45.0669C15.4696 45.0669 6.93316 36.5305 6.93316 26.0002C6.93316 15.4699 15.4696 6.93347 25.9998 6.93347C36.53 6.93347 45.0664 15.4699 45.0664 26.0002Z" fill="url(#paint1_linear_42_2547)"/>
<path d="M50.5461 17.428C49.2625 13.7523 47.1698 10.4118 44.4224 7.65312L42.3038 9.76301C44.7353 12.2045 46.5873 15.1608 47.7233 18.4138L50.5461 17.428Z" fill="white" fill-opacity="0.8"/>
<path d="M1.45352 34.572C2.73714 38.2477 4.82987 41.5882 7.57724 44.3469L9.69584 42.237C7.26442 39.7955 5.41235 36.8392 4.27635 33.5862L1.45352 34.572Z" fill="white" fill-opacity="0.8"/>
<path d="M1.45352 17.428C2.73714 13.7523 4.82987 10.4118 7.57725 7.65311L9.69584 9.76301C7.26442 12.2045 5.41235 15.1608 4.27635 18.4138L1.45352 17.428Z" fill="white" fill-opacity="0.8"/>
<path d="M50.5461 34.572C49.2625 38.2477 47.1698 41.5882 44.4224 44.3469L42.3038 42.237C44.7353 39.7955 46.5873 36.8392 47.7233 33.5862L50.5461 34.572Z" fill="white" fill-opacity="0.8"/>
<path d="M20.24 0.646017C22.1299 0.216685 24.0618 0 25.9999 0C27.9379 0 29.8698 0.216685 31.7597 0.646017L31.0973 3.56173C29.4248 3.18177 27.715 2.99 25.9999 2.99C24.2847 2.99 22.5749 3.18177 20.9024 3.56173L20.24 0.646017Z" fill="white" fill-opacity="0.8"/>
<path d="M31.7596 51.354C29.8698 51.7833 27.9378 52 25.9998 52C24.0618 52 22.1299 51.7833 20.24 51.354L20.9024 48.4383C22.5749 48.8182 24.2847 49.01 25.9998 49.01C27.715 49.01 29.4247 48.8182 31.0973 48.4383L31.7596 51.354Z" fill="white" fill-opacity="0.8"/>
<path d="M7.9598 19.7081C10.5673 12.2539 17.667 6.8907 25.9997 6.8907C34.3336 6.8907 41.4339 12.2553 44.0406 19.7109L45.4189 19.2298C42.6192 11.1992 34.9848 5.43469 25.9997 5.43469C17.0155 5.43469 9.38168 11.1981 6.58134 19.2276L7.9598 19.7081Z" fill="white" fill-opacity="0.6"/>
<path d="M44.0405 32.2896C41.4337 39.745 34.3334 45.1094 25.9997 45.1094C17.6671 45.1094 10.5676 39.7465 7.95993 32.2926L6.58173 32.7738C9.38244 40.8026 17.0159 46.5654 25.9997 46.5654C34.9844 46.5654 42.6185 40.8014 45.4185 32.7713L44.0405 32.2896Z" fill="white" fill-opacity="0.6"/>
<path d="M51.9911 26.6761C51.9968 26.4515 51.9997 26.2261 51.9997 26.0001C51.9997 11.6407 40.3591 0.00012207 25.9997 0.00012207C11.6403 0.00012207 -0.000305176 11.6407 -0.000305176 26.0001C-0.000305176 26.2261 0.00257879 26.4515 0.00831193 26.6761C0.366817 12.6292 11.8663 1.35212 25.9997 1.35212C40.1331 1.35212 51.6326 12.6292 51.9911 26.6761Z" fill="white" fill-opacity="0.3"/>
<path d="M0.00846441 25.324C0.00273167 25.5486 -0.000152568 25.774 -0.000152588 26C-0.000153843 40.3594 11.6404 52 25.9998 52C40.3592 52 51.9998 40.3594 51.9998 26C51.9998 25.774 51.997 25.5486 51.9912 25.324C51.6327 39.371 40.1332 50.648 25.9998 50.648C11.8665 50.648 0.366975 39.3709 0.00846441 25.324Z" fill="black" fill-opacity="0.2"/>
<path d="M24.9848 34.5801V21.2681L26.4408 22.7241H22.0728V20.0201H28.3544V34.5801H24.9848Z" fill="black" fill-opacity="0.3"/>
<path d="M24.9848 33.2801V19.9681L26.4408 21.4241H22.0728V18.7201H28.3544V33.2801H24.9848Z" fill="white"/>
<defs>
<linearGradient id="paint0_linear_42_2547" x1="25.9997" y1="0.512381" x2="25.9951" y2="52.0001" gradientUnits="userSpaceOnUse">
<stop stop-opacity="0"/>
<stop offset="1" stop-opacity="0.3"/>
</linearGradient>
<linearGradient id="paint1_linear_42_2547" x1="37.837" y1="11.262" x2="11.2572" y2="37.8441" gradientUnits="userSpaceOnUse">
<stop stop-opacity="0.25"/>
<stop offset="1" stop-opacity="0"/>
</linearGradient>
</defs>
</svg>
