<svg width="61" height="61" viewBox="0 0 61 61" fill="none" xmlns="http://www.w3.org/2000/svg">
<rect x="0.359985" y="0.839966" width="59.8" height="59.8" rx="29.9" fill="#0093D1"/>
<path fill-rule="evenodd" clip-rule="evenodd" d="M30.26 60.64C46.7733 60.64 60.16 47.2533 60.16 30.74C60.16 14.2267 46.7733 0.839966 30.26 0.839966C13.7467 0.839966 0.359985 14.2267 0.359985 30.74C0.359985 47.2533 13.7467 60.64 30.26 60.64ZM30.2599 52.6668C42.3697 52.6668 52.1866 42.85 52.1866 30.7402C52.1866 18.6303 42.3697 8.8134 30.2599 8.8134C18.1502 8.8134 8.3333 18.6303 8.3333 30.7402C8.3333 42.85 18.1502 52.6668 30.2599 52.6668Z" fill="url(#paint0_linear_42_2577)"/>
<path d="M52.1866 30.7401C52.1866 42.8499 42.3697 52.6668 30.2599 52.6668C18.1502 52.6668 8.33331 42.8499 8.33331 30.7401C8.33331 18.6303 18.1502 8.81335 30.2599 8.81335C42.3697 8.81335 52.1866 18.6303 52.1866 30.7401Z" fill="url(#paint1_linear_42_2577)"/>
<path d="M58.4883 20.8821C57.0121 16.655 54.6055 12.8134 51.446 9.64093L49.0096 12.0673C51.8057 14.875 53.9356 18.2748 55.242 22.0157L58.4883 20.8821Z" fill="white" fill-opacity="0.8"/>
<path d="M2.03174 40.5976C3.5079 44.8247 5.91454 48.6662 9.07401 51.8388L11.5104 49.4124C8.71427 46.6047 6.58439 43.2049 5.27799 39.464L2.03174 40.5976Z" fill="white" fill-opacity="0.8"/>
<path d="M2.03174 20.8821C3.5079 16.655 5.91454 12.8134 9.07402 9.64092L11.5104 12.0673C8.71427 14.875 6.58439 18.2748 5.27799 22.0157L2.03174 20.8821Z" fill="white" fill-opacity="0.8"/>
<path d="M58.4883 40.5976C57.0121 44.8247 54.6055 48.6662 51.446 51.8388L49.0096 49.4124C51.8057 46.6047 53.9356 43.2049 55.242 39.464L58.4883 40.5976Z" fill="white" fill-opacity="0.8"/>
<path d="M23.6362 1.58276C25.8096 1.08903 28.0313 0.839844 30.26 0.839844C32.4887 0.839844 34.7105 1.08903 36.8838 1.58276L36.1221 4.93583C34.1987 4.49887 32.2324 4.27834 30.26 4.27834C28.2876 4.27834 26.3214 4.49887 24.398 4.93583L23.6362 1.58276Z" fill="white" fill-opacity="0.8"/>
<path d="M36.8838 59.8969C34.7104 60.3907 32.4887 60.6398 30.26 60.6398C28.0313 60.6398 25.8095 60.3907 23.6362 59.8969L24.3979 56.5439C26.3213 56.9808 28.2876 57.2013 30.26 57.2013C32.2324 57.2013 34.1986 56.9808 36.122 56.5439L36.8838 59.8969Z" fill="white" fill-opacity="0.8"/>
<path d="M9.51394 23.5041C12.5126 14.9318 20.6772 8.76413 30.2599 8.76413C39.8437 8.76413 48.0092 14.9334 51.0069 23.5074L52.5919 22.9541C49.3722 13.7189 40.5927 7.08972 30.2599 7.08972C19.928 7.08972 11.1491 13.7176 7.92871 22.9516L9.51394 23.5041Z" fill="white" fill-opacity="0.6"/>
<path d="M51.0068 37.9729C48.0089 46.5466 39.8436 52.7156 30.2598 52.7156C20.6774 52.7156 12.5129 46.5483 9.51408 37.9763L7.92915 38.5297C11.15 47.7628 19.9285 54.39 30.2598 54.39C40.5923 54.39 49.3715 47.7615 52.5915 38.5268L51.0068 37.9729Z" fill="white" fill-opacity="0.6"/>
<path d="M60.1501 31.5174C60.1567 31.259 60.16 30.9999 60.16 30.74C60.16 14.2267 46.7733 0.839966 30.26 0.839966C13.7467 0.839966 0.359985 14.2267 0.359985 30.74C0.359985 30.9999 0.363302 31.259 0.369895 31.5174C0.782175 15.3634 14.0066 2.39476 30.26 2.39476C46.5134 2.39476 59.7378 15.3634 60.1501 31.5174Z" fill="white" fill-opacity="0.3"/>
<path d="M0.369895 29.9624C0.363302 30.2207 0.359985 30.4799 0.359985 30.7398C0.359984 47.2531 13.7467 60.6398 30.26 60.6398C46.7733 60.6398 60.16 47.2531 60.16 30.7398C60.16 30.4799 60.1567 30.2207 60.1501 29.9624C59.7378 46.1164 46.5134 59.085 30.26 59.085C14.0066 59.085 0.782182 46.1164 0.369895 29.9624Z" fill="black" fill-opacity="0.2"/>
<path d="M34.9351 40.8939C33.5636 40.8939 32.3358 40.559 31.2514 39.8893C30.167 39.2036 29.3139 38.2149 28.6919 36.9232C28.07 35.6315 27.7591 34.0687 27.7591 32.2349C27.7591 30.401 28.07 28.8382 28.6919 27.5466C29.3139 26.2549 30.167 25.2742 31.2514 24.6044C32.3358 23.9187 33.5636 23.5758 34.9351 23.5758C36.3224 23.5758 37.5503 23.9187 38.6187 24.6044C39.7031 25.2742 40.5563 26.2549 41.1782 27.5466C41.8001 28.8382 42.1111 30.401 42.1111 32.2349C42.1111 34.0687 41.8001 35.6315 41.1782 36.9232C40.5563 38.2149 39.7031 39.2036 38.6187 39.8893C37.5503 40.559 36.3224 40.8939 34.9351 40.8939ZM34.9351 37.6169C35.5889 37.6169 36.155 37.4335 36.6334 37.0667C37.1277 36.6999 37.5104 36.1179 37.7815 35.3206C38.0686 34.5232 38.2121 33.4947 38.2121 32.2349C38.2121 30.9751 38.0686 29.9465 37.7815 29.1492C37.5104 28.3519 37.1277 27.7698 36.6334 27.403C36.155 27.0363 35.5889 26.8529 34.9351 26.8529C34.2972 26.8529 33.7311 27.0363 33.2367 27.403C32.7583 27.7698 32.3756 28.3519 32.0886 29.1492C31.8175 29.9465 31.6819 30.9751 31.6819 32.2349C31.6819 33.4947 31.8175 34.5232 32.0886 35.3206C32.3756 36.1179 32.7583 36.6999 33.2367 37.0667C33.7311 37.4335 34.2972 37.6169 34.9351 37.6169Z" fill="black" fill-opacity="0.3"/>
<path d="M20.9753 40.6069V25.2981L22.6497 26.9725H17.6265V23.8629H24.8503V40.6069H20.9753Z" fill="black" fill-opacity="0.3"/>
<path d="M34.9351 39.399C33.5636 39.399 32.3358 39.0641 31.2514 38.3944C30.167 37.7087 29.3139 36.72 28.6919 35.4283C28.07 34.1366 27.7591 32.5738 27.7591 30.74C27.7591 28.9061 28.07 27.3433 28.6919 26.0517C29.3139 24.76 30.167 23.7793 31.2514 23.1095C32.3358 22.4238 33.5636 22.0809 34.9351 22.0809C36.3224 22.0809 37.5503 22.4238 38.6187 23.1095C39.7031 23.7793 40.5563 24.76 41.1782 26.0517C41.8001 27.3433 42.1111 28.9061 42.1111 30.74C42.1111 32.5738 41.8001 34.1366 41.1782 35.4283C40.5563 36.72 39.7031 37.7087 38.6187 38.3944C37.5503 39.0641 36.3224 39.399 34.9351 39.399ZM34.9351 36.122C35.5889 36.122 36.155 35.9386 36.6334 35.5718C37.1277 35.205 37.5104 34.623 37.7815 33.8257C38.0686 33.0283 38.2121 31.9998 38.2121 30.74C38.2121 29.4802 38.0686 28.4516 37.7815 27.6543C37.5104 26.857 37.1277 26.2749 36.6334 25.9081C36.155 25.5414 35.5889 25.358 34.9351 25.358C34.2972 25.358 33.7311 25.5414 33.2367 25.9081C32.7583 26.2749 32.3756 26.857 32.0886 27.6543C31.8175 28.4516 31.6819 29.4802 31.6819 30.74C31.6819 31.9998 31.8175 33.0283 32.0886 33.8257C32.3756 34.623 32.7583 35.205 33.2367 35.5718C33.7311 35.9386 34.2972 36.122 34.9351 36.122Z" fill="white"/>
<path d="M20.9753 39.112V23.8032L22.6497 25.4776H17.6265V22.368H24.8503V39.112H20.9753Z" fill="white"/>
<defs>
<linearGradient id="paint0_linear_42_2577" x1="30.26" y1="1.42906" x2="30.2546" y2="60.64" gradientUnits="userSpaceOnUse">
<stop stop-opacity="0"/>
<stop offset="1" stop-opacity="0.3"/>
</linearGradient>
<linearGradient id="paint1_linear_42_2577" x1="43.8727" y1="13.7912" x2="13.306" y2="44.3605" gradientUnits="userSpaceOnUse">
<stop stop-opacity="0.25"/>
<stop offset="1" stop-opacity="0"/>
</linearGradient>
</defs>
</svg>
