<svg width="52" height="52" viewBox="0 0 52 52" fill="none" xmlns="http://www.w3.org/2000/svg">
<rect x="-0.000305176" y="0.00012207" width="52" height="52" rx="26" fill="#D33939"/>
<path fill-rule="evenodd" clip-rule="evenodd" d="M25.9997 52.0001C40.3591 52.0001 51.9997 40.3595 51.9997 26.0001C51.9997 11.6407 40.3591 0.00012207 25.9997 0.00012207C11.6403 0.00012207 -0.000305176 11.6407 -0.000305176 26.0001C-0.000305176 40.3595 11.6403 52.0001 25.9997 52.0001ZM25.9996 45.067C36.5299 45.067 45.0663 36.5306 45.0663 26.0003C45.0663 15.47 36.5299 6.93354 25.9996 6.93354C15.4694 6.93354 6.93301 15.47 6.93301 26.0003C6.93301 36.5306 15.4694 45.067 25.9996 45.067Z" fill="url(#paint0_linear_42_2607)"/>
<path d="M45.0664 26.0002C45.0664 36.5305 36.53 45.0669 25.9998 45.0669C15.4696 45.0669 6.93314 36.5305 6.93314 26.0002C6.93314 15.4699 15.4696 6.93347 25.9998 6.93347C36.53 6.93347 45.0664 15.4699 45.0664 26.0002Z" fill="url(#paint1_linear_42_2607)"/>
<path d="M50.5461 17.428C49.2625 13.7523 47.1698 10.4118 44.4224 7.65312L42.3038 9.76301C44.7353 12.2045 46.5873 15.1608 47.7233 18.4138L50.5461 17.428Z" fill="white" fill-opacity="0.8"/>
<path d="M1.45352 34.572C2.73714 38.2477 4.82987 41.5882 7.57724 44.3469L9.69584 42.237C7.26442 39.7955 5.41235 36.8392 4.27635 33.5862L1.45352 34.572Z" fill="white" fill-opacity="0.8"/>
<path d="M1.45352 17.428C2.73714 13.7523 4.82987 10.4118 7.57725 7.65311L9.69584 9.76301C7.26442 12.2045 5.41235 15.1608 4.27635 18.4138L1.45352 17.428Z" fill="white" fill-opacity="0.8"/>
<path d="M50.5461 34.572C49.2625 38.2477 47.1698 41.5882 44.4224 44.3469L42.3038 42.237C44.7353 39.7955 46.5873 36.8392 47.7233 33.5862L50.5461 34.572Z" fill="white" fill-opacity="0.8"/>
<path d="M20.24 0.646017C22.1299 0.216685 24.0618 0 25.9999 0C27.9379 0 29.8698 0.216685 31.7597 0.646017L31.0973 3.56173C29.4248 3.18177 27.715 2.99 25.9999 2.99C24.2847 2.99 22.5749 3.18177 20.9024 3.56173L20.24 0.646017Z" fill="white" fill-opacity="0.8"/>
<path d="M31.7596 51.354C29.8698 51.7833 27.9378 52 25.9998 52C24.0618 52 22.1299 51.7833 20.24 51.354L20.9024 48.4383C22.5749 48.8182 24.2847 49.01 25.9998 49.01C27.715 49.01 29.4247 48.8182 31.0973 48.4383L31.7596 51.354Z" fill="white" fill-opacity="0.8"/>
<path d="M7.95982 19.7081C10.5673 12.2539 17.667 6.8907 25.9998 6.8907C34.3336 6.8907 41.434 12.2553 44.0407 19.7109L45.4189 19.2298C42.6192 11.1992 34.9848 5.43469 25.9998 5.43469C17.0155 5.43469 9.3817 11.1981 6.58136 19.2276L7.95982 19.7081Z" fill="white" fill-opacity="0.6"/>
<path d="M44.0405 32.2896C41.4337 39.745 34.3334 45.1094 25.9997 45.1094C17.6672 45.1094 10.5676 39.7465 7.95994 32.2926L6.58174 32.7738C9.38246 40.8026 17.016 46.5654 25.9997 46.5654C34.9845 46.5654 42.6185 40.8014 45.4185 32.7713L44.0405 32.2896Z" fill="white" fill-opacity="0.6"/>
<path d="M51.9911 26.6761C51.9968 26.4515 51.9997 26.2261 51.9997 26.0001C51.9997 11.6407 40.3591 0.00012207 25.9997 0.00012207C11.6403 0.00012207 -0.000305176 11.6407 -0.000305176 26.0001C-0.000305176 26.2261 0.00257879 26.4515 0.00831193 26.6761C0.366817 12.6292 11.8663 1.35212 25.9997 1.35212C40.1331 1.35212 51.6326 12.6292 51.9911 26.6761Z" fill="white" fill-opacity="0.3"/>
<path d="M0.00846441 25.324C0.00273167 25.5486 -0.000152568 25.774 -0.000152588 26C-0.000153843 40.3594 11.6404 52 25.9998 52C40.3592 52 51.9998 40.3594 51.9998 26C51.9998 25.774 51.997 25.5486 51.9912 25.324C51.6327 39.371 40.1332 50.648 25.9998 50.648C11.8665 50.648 0.366975 39.3709 0.00846441 25.324Z" fill="black" fill-opacity="0.2"/>
<path d="M34.8989 33.2196C33.9449 33.2196 33.0907 32.9866 32.3364 32.5207C31.582 32.0437 30.9885 31.3559 30.5559 30.4574C30.1233 29.5588 29.9069 28.4717 29.9069 27.1959C29.9069 25.9202 30.1233 24.833 30.5559 23.9345C30.9885 23.0359 31.582 22.3537 32.3364 21.8878C33.0907 21.4107 33.9449 21.1722 34.8989 21.1722C35.8641 21.1722 36.7182 21.4107 37.4615 21.8878C38.2158 22.3537 38.8093 23.0359 39.242 23.9345C39.6746 24.833 39.8909 25.9202 39.8909 27.1959C39.8909 28.4717 39.6746 29.5588 39.242 30.4574C38.8093 31.3559 38.2158 32.0437 37.4615 32.5207C36.7182 32.9866 35.8641 33.2196 34.8989 33.2196ZM34.8989 30.9399C35.3538 30.9399 35.7476 30.8123 36.0804 30.5572C36.4243 30.3021 36.6905 29.8971 36.8791 29.3425C37.0788 28.7878 37.1786 28.0723 37.1786 27.1959C37.1786 26.3195 37.0788 25.604 36.8791 25.0494C36.6905 24.4947 36.4243 24.0898 36.0804 23.8346C35.7476 23.5795 35.3538 23.4519 34.8989 23.4519C34.4552 23.4519 34.0614 23.5795 33.7175 23.8346C33.3847 24.0898 33.1185 24.4947 32.9188 25.0494C32.7302 25.604 32.6359 26.3195 32.6359 27.1959C32.6359 28.0723 32.7302 28.7878 32.9188 29.3425C33.1185 29.8971 33.3847 30.3021 33.7175 30.5572C34.0614 30.8123 34.4552 30.9399 34.8989 30.9399Z" fill="black" fill-opacity="0.3"/>
<path d="M23.6052 33.2196C22.6512 33.2196 21.797 32.9866 21.0426 32.5207C20.2883 32.0437 19.6948 31.3559 19.2621 30.4574C18.8295 29.5588 18.6132 28.4717 18.6132 27.1959C18.6132 25.9202 18.8295 24.833 19.2621 23.9345C19.6948 23.0359 20.2883 22.3537 21.0426 21.8878C21.797 21.4107 22.6512 21.1722 23.6052 21.1722C24.5703 21.1722 25.4245 21.4107 26.1677 21.8878C26.9221 22.3537 27.5156 23.0359 27.9482 23.9345C28.3809 24.833 28.5972 25.9202 28.5972 27.1959C28.5972 28.4717 28.3809 29.5588 27.9482 30.4574C27.5156 31.3559 26.9221 32.0437 26.1677 32.5207C25.4245 32.9866 24.5703 33.2196 23.6052 33.2196ZM23.6052 30.9399C24.06 30.9399 24.4538 30.8123 24.7866 30.5572C25.1305 30.3021 25.3968 29.8971 25.5853 29.3425C25.785 28.7878 25.8849 28.0723 25.8849 27.1959C25.8849 26.3195 25.785 25.604 25.5853 25.0494C25.3968 24.4947 25.1305 24.0898 24.7866 23.8346C24.4538 23.5795 24.06 23.4519 23.6052 23.4519C23.1614 23.4519 22.7676 23.5795 22.4237 23.8346C22.0909 24.0898 21.8247 24.4947 21.625 25.0494C21.4364 25.604 21.3421 26.3195 21.3421 27.1959C21.3421 28.0723 21.4364 28.7878 21.625 29.3425C21.8247 29.8971 22.0909 30.3021 22.4237 30.5572C22.7676 30.8123 23.1614 30.9399 23.6052 30.9399Z" fill="black" fill-opacity="0.3"/>
<path d="M13.8941 33.0199V22.3703L15.0589 23.5351H11.5645V21.3719H16.5897V33.0199H13.8941Z" fill="black" fill-opacity="0.3"/>
<path d="M34.8989 31.9197C33.9449 31.9197 33.0907 31.6867 32.3364 31.2208C31.582 30.7438 30.9885 30.056 30.5559 29.1574C30.1233 28.2589 29.9069 27.1717 29.9069 25.896C29.9069 24.6203 30.1233 23.5331 30.5559 22.6346C30.9885 21.736 31.582 21.0538 32.3364 20.5878C33.0907 20.1108 33.9449 19.8723 34.8989 19.8723C35.8641 19.8723 36.7182 20.1108 37.4615 20.5878C38.2158 21.0538 38.8093 21.736 39.242 22.6346C39.6746 23.5331 39.8909 24.6203 39.8909 25.896C39.8909 27.1717 39.6746 28.2589 39.242 29.1574C38.8093 30.056 38.2158 30.7438 37.4615 31.2208C36.7182 31.6867 35.8641 31.9197 34.8989 31.9197ZM34.8989 29.64C35.3538 29.64 35.7476 29.5124 36.0804 29.2573C36.4243 29.0021 36.6905 28.5972 36.8791 28.0426C37.0788 27.4879 37.1786 26.7724 37.1786 25.896C37.1786 25.0196 37.0788 24.3041 36.8791 23.7494C36.6905 23.1948 36.4243 22.7899 36.0804 22.5347C35.7476 22.2796 35.3538 22.152 34.8989 22.152C34.4552 22.152 34.0614 22.2796 33.7175 22.5347C33.3847 22.7899 33.1185 23.1948 32.9188 23.7494C32.7302 24.3041 32.6359 25.0196 32.6359 25.896C32.6359 26.7724 32.7302 27.4879 32.9188 28.0426C33.1185 28.5972 33.3847 29.0021 33.7175 29.2573C34.0614 29.5124 34.4552 29.64 34.8989 29.64Z" fill="white"/>
<path d="M23.6052 31.9197C22.6512 31.9197 21.797 31.6867 21.0426 31.2208C20.2883 30.7438 19.6948 30.056 19.2621 29.1574C18.8295 28.2589 18.6132 27.1717 18.6132 25.896C18.6132 24.6203 18.8295 23.5331 19.2621 22.6346C19.6948 21.736 20.2883 21.0538 21.0426 20.5878C21.797 20.1108 22.6512 19.8723 23.6052 19.8723C24.5703 19.8723 25.4245 20.1108 26.1677 20.5878C26.9221 21.0538 27.5156 21.736 27.9482 22.6346C28.3809 23.5331 28.5972 24.6203 28.5972 25.896C28.5972 27.1717 28.3809 28.2589 27.9482 29.1574C27.5156 30.056 26.9221 30.7438 26.1677 31.2208C25.4245 31.6867 24.5703 31.9197 23.6052 31.9197ZM23.6052 29.64C24.06 29.64 24.4538 29.5124 24.7866 29.2573C25.1305 29.0021 25.3968 28.5972 25.5853 28.0426C25.785 27.4879 25.8849 26.7724 25.8849 25.896C25.8849 25.0196 25.785 24.3041 25.5853 23.7494C25.3968 23.1948 25.1305 22.7899 24.7866 22.5347C24.4538 22.2796 24.06 22.152 23.6052 22.152C23.1614 22.152 22.7676 22.2796 22.4237 22.5347C22.0909 22.7899 21.8247 23.1948 21.625 23.7494C21.4364 24.3041 21.3421 25.0196 21.3421 25.896C21.3421 26.7724 21.4364 27.4879 21.625 28.0426C21.8247 28.5972 22.0909 29.0021 22.4237 29.2573C22.7676 29.5124 23.1614 29.64 23.6052 29.64Z" fill="white"/>
<path d="M13.8941 31.72V21.0704L15.0589 22.2352H11.5645V20.072H16.5897V31.72H13.8941Z" fill="white"/>
<defs>
<linearGradient id="paint0_linear_42_2607" x1="25.9997" y1="0.512381" x2="25.9951" y2="52.0001" gradientUnits="userSpaceOnUse">
<stop stop-opacity="0"/>
<stop offset="1" stop-opacity="0.3"/>
</linearGradient>
<linearGradient id="paint1_linear_42_2607" x1="37.837" y1="11.262" x2="11.2572" y2="37.8441" gradientUnits="userSpaceOnUse">
<stop stop-opacity="0.25"/>
<stop offset="1" stop-opacity="0"/>
</linearGradient>
</defs>
</svg>
