<svg width="61" height="58" viewBox="0 0 61 58" fill="none" xmlns="http://www.w3.org/2000/svg">
<rect x="0.359985" y="-0.00598145" width="59.8" height="57.5852" rx="28.7926" fill="#0093D1"/>
<path fill-rule="evenodd" clip-rule="evenodd" d="M30.26 57.5792C46.7733 57.5792 60.16 44.6883 60.16 28.7866C60.16 12.8849 46.7733 -0.00598145 30.26 -0.00598145C13.7467 -0.00598145 0.359985 12.8849 0.359985 28.7866C0.359985 44.6883 13.7467 57.5792 30.26 57.5792ZM30.2599 49.9014C42.3697 49.9014 52.1866 40.4481 52.1866 28.7868C52.1866 17.1255 42.3697 7.67214 30.2599 7.67214C18.1502 7.67214 8.3333 17.1255 8.3333 28.7868C8.3333 40.4481 18.1502 49.9014 30.2599 49.9014Z" fill="url(#paint0_linear_86_3902)"/>
<path d="M52.1866 28.7869C52.1866 40.4482 42.3697 49.9015 30.26 49.9015C18.1502 49.9015 8.33334 40.4482 8.33334 28.7869C8.33334 17.1256 18.1502 7.67224 30.26 7.67224C42.3697 7.67224 52.1866 17.1256 52.1866 28.7869Z" fill="url(#paint1_linear_86_3902)"/>
<path d="M58.4883 19.294C57.0121 15.2235 54.6055 11.5242 51.446 8.46914L49.0096 10.8057C51.8057 13.5093 53.9356 16.7832 55.242 20.3856L58.4883 19.294Z" fill="white" fill-opacity="0.8"/>
<path d="M2.03174 38.2793C3.5079 42.3498 5.91454 46.0491 9.07401 49.1041L11.5104 46.7676C8.71427 44.0639 6.58439 40.79 5.27799 37.1876L2.03174 38.2793Z" fill="white" fill-opacity="0.8"/>
<path d="M2.03174 19.294C3.5079 15.2234 5.91454 11.5241 9.07402 8.46913L11.5104 10.8056C8.71427 13.5093 6.58439 16.7832 5.27799 20.3856L2.03174 19.294Z" fill="white" fill-opacity="0.8"/>
<path d="M58.4883 38.2793C57.0121 42.3498 54.6055 46.0491 51.446 49.1041L49.0096 46.7676C51.8057 44.0639 53.9356 40.79 55.242 37.1876L58.4883 38.2793Z" fill="white" fill-opacity="0.8"/>
<path d="M23.6362 0.709423C25.8096 0.233977 28.0313 -0.00598145 30.26 -0.00598145C32.4887 -0.00598145 34.7105 0.233977 36.8838 0.709423L36.1221 3.9383C34.1987 3.51753 32.2324 3.30517 30.26 3.30517C28.2876 3.30517 26.3214 3.51753 24.398 3.9383L23.6362 0.709423Z" fill="white" fill-opacity="0.8"/>
<path d="M36.8838 56.8638C34.7104 57.3392 32.4887 57.5792 30.26 57.5792C28.0313 57.5792 25.8095 57.3392 23.6362 56.8638L24.3979 53.6349C26.3213 54.0557 28.2876 54.2681 30.26 54.2681C32.2324 54.2681 34.1986 54.0557 36.122 53.6349L36.8838 56.8638Z" fill="white" fill-opacity="0.8"/>
<path d="M9.51394 21.819C12.5126 13.5642 20.6772 7.62496 30.2599 7.62496C39.8437 7.62496 48.0092 13.5658 51.0069 21.8222L52.5919 21.2894C49.3722 12.3962 40.5927 6.01257 30.2599 6.01257C19.928 6.01257 11.1491 12.395 7.92871 21.2869L9.51394 21.819Z" fill="white" fill-opacity="0.6"/>
<path d="M51.0068 35.7519C48.0089 44.0081 39.8436 49.9486 30.2598 49.9486C20.6774 49.9486 12.5129 44.0097 9.51408 35.7552L7.92915 36.2881C11.15 45.1793 19.9285 51.561 30.2598 51.561C40.5923 51.561 49.3715 45.178 52.5915 36.2854L51.0068 35.7519Z" fill="white" fill-opacity="0.6"/>
<path d="M60.1501 29.5352C60.1567 29.2865 60.16 29.0369 60.16 28.7866C60.16 12.8849 46.7733 -0.00598145 30.26 -0.00598145C13.7467 -0.00598145 0.359985 12.8849 0.359985 28.7866C0.359985 29.0369 0.363302 29.2865 0.369895 29.5352C0.782175 13.9795 14.0066 1.49123 30.26 1.49123C46.5134 1.49123 59.7378 13.9795 60.1501 29.5352Z" fill="white" fill-opacity="0.3"/>
<path d="M0.369895 28.038C0.363302 28.2867 0.359985 28.5363 0.359985 28.7866C0.359984 44.6883 13.7467 57.5792 30.26 57.5792C46.7733 57.5792 60.16 44.6883 60.16 28.7866C60.16 28.5363 60.1567 28.2867 60.1501 28.038C59.7378 43.5937 46.5134 56.082 30.26 56.082C14.0066 56.082 0.782182 43.5937 0.369895 28.038Z" fill="black" fill-opacity="0.2"/>
<defs>
<linearGradient id="paint0_linear_86_3902" x1="30.26" y1="0.561298" x2="30.255" y2="57.5792" gradientUnits="userSpaceOnUse">
<stop stop-opacity="0"/>
<stop offset="1" stop-opacity="0.3"/>
</linearGradient>
<linearGradient id="paint1_linear_86_3902" x1="43.8728" y1="12.4657" x2="14.4592" y2="43.0132" gradientUnits="userSpaceOnUse">
<stop stop-opacity="0.25"/>
<stop offset="1" stop-opacity="0"/>
</linearGradient>
</defs>
</svg>
