<svg width="52" height="52" viewBox="0 0 52 52" fill="none" xmlns="http://www.w3.org/2000/svg">
<rect x="-0.000305176" y="0.00012207" width="52" height="52" rx="26" fill="#EFAC00"/>
<path fill-rule="evenodd" clip-rule="evenodd" d="M25.9997 52.0001C40.3591 52.0001 51.9997 40.3595 51.9997 26.0001C51.9997 11.6407 40.3591 0.00012207 25.9997 0.00012207C11.6403 0.00012207 -0.000305176 11.6407 -0.000305176 26.0001C-0.000305176 40.3595 11.6403 52.0001 25.9997 52.0001ZM25.9996 45.067C36.5299 45.067 45.0663 36.5306 45.0663 26.0003C45.0663 15.47 36.5299 6.93354 25.9996 6.93354C15.4694 6.93354 6.93301 15.47 6.93301 26.0003C6.93301 36.5306 15.4694 45.067 25.9996 45.067Z" fill="url(#paint0_linear_42_2592)"/>
<path d="M45.0664 26.0002C45.0664 36.5305 36.53 45.0669 25.9998 45.0669C15.4696 45.0669 6.93314 36.5305 6.93314 26.0002C6.93314 15.4699 15.4696 6.93347 25.9998 6.93347C36.53 6.93347 45.0664 15.4699 45.0664 26.0002Z" fill="url(#paint1_linear_42_2592)"/>
<path d="M50.5461 17.428C49.2625 13.7523 47.1698 10.4118 44.4224 7.65312L42.3038 9.76301C44.7353 12.2045 46.5873 15.1608 47.7233 18.4138L50.5461 17.428Z" fill="white" fill-opacity="0.8"/>
<path d="M1.45352 34.572C2.73714 38.2477 4.82987 41.5882 7.57724 44.3469L9.69584 42.237C7.26442 39.7955 5.41235 36.8392 4.27635 33.5862L1.45352 34.572Z" fill="white" fill-opacity="0.8"/>
<path d="M1.45352 17.428C2.73714 13.7523 4.82987 10.4118 7.57725 7.65311L9.69584 9.76301C7.26442 12.2045 5.41235 15.1608 4.27635 18.4138L1.45352 17.428Z" fill="white" fill-opacity="0.8"/>
<path d="M50.5461 34.572C49.2625 38.2477 47.1698 41.5882 44.4224 44.3469L42.3038 42.237C44.7353 39.7955 46.5873 36.8392 47.7233 33.5862L50.5461 34.572Z" fill="white" fill-opacity="0.8"/>
<path d="M20.24 0.646017C22.1299 0.216685 24.0618 0 25.9999 0C27.9379 0 29.8698 0.216685 31.7597 0.646017L31.0973 3.56173C29.4248 3.18177 27.715 2.99 25.9999 2.99C24.2847 2.99 22.5749 3.18177 20.9024 3.56173L20.24 0.646017Z" fill="white" fill-opacity="0.8"/>
<path d="M31.7596 51.354C29.8698 51.7833 27.9378 52 25.9998 52C24.0618 52 22.1299 51.7833 20.24 51.354L20.9024 48.4383C22.5749 48.8182 24.2847 49.01 25.9998 49.01C27.715 49.01 29.4247 48.8182 31.0973 48.4383L31.7596 51.354Z" fill="white" fill-opacity="0.8"/>
<path d="M7.95982 19.7081C10.5673 12.2539 17.667 6.8907 25.9998 6.8907C34.3336 6.8907 41.434 12.2553 44.0407 19.7109L45.4189 19.2298C42.6192 11.1992 34.9848 5.43469 25.9998 5.43469C17.0155 5.43469 9.3817 11.1981 6.58136 19.2276L7.95982 19.7081Z" fill="white" fill-opacity="0.6"/>
<path d="M44.0405 32.2896C41.4337 39.745 34.3334 45.1094 25.9997 45.1094C17.6672 45.1094 10.5676 39.7465 7.95994 32.2926L6.58174 32.7738C9.38246 40.8026 17.016 46.5654 25.9997 46.5654C34.9845 46.5654 42.6185 40.8014 45.4185 32.7713L44.0405 32.2896Z" fill="white" fill-opacity="0.6"/>
<path d="M51.9911 26.6761C51.9968 26.4515 51.9997 26.2261 51.9997 26.0001C51.9997 11.6407 40.3591 0.00012207 25.9997 0.00012207C11.6403 0.00012207 -0.000305176 11.6407 -0.000305176 26.0001C-0.000305176 26.2261 0.00257879 26.4515 0.00831193 26.6761C0.366817 12.6292 11.8663 1.35212 25.9997 1.35212C40.1331 1.35212 51.6326 12.6292 51.9911 26.6761Z" fill="white" fill-opacity="0.3"/>
<path d="M0.00846441 25.324C0.00273167 25.5486 -0.000152568 25.774 -0.000152588 26C-0.000153843 40.3594 11.6404 52 25.9998 52C40.3592 52 51.9998 40.3594 51.9998 26C51.9998 25.774 51.997 25.5486 51.9912 25.324C51.6327 39.371 40.1332 50.648 25.9998 50.648C11.8665 50.648 0.366975 39.3709 0.00846441 25.324Z" fill="black" fill-opacity="0.2"/>
<path d="M31.7106 34.8297C30.6984 34.8297 29.693 34.698 28.6946 34.4345C27.7101 34.1572 26.8642 33.7689 26.157 33.2697L27.4882 30.6905C28.0429 31.0926 28.6808 31.4116 29.4018 31.6473C30.1368 31.883 30.8786 32.0009 31.6274 32.0009C32.4733 32.0009 33.1389 31.8345 33.6242 31.5017C34.1096 31.1689 34.3522 30.7044 34.3522 30.1081C34.3522 29.7337 34.2552 29.4009 34.061 29.1097C33.8669 28.8185 33.5202 28.5966 33.021 28.4441C32.5357 28.2916 31.8493 28.2153 30.9618 28.2153H27.2386L27.9874 20.0201H36.869V22.7241H29.1938L30.941 21.1849L30.421 27.0297L28.6738 25.4905H31.7522C33.1944 25.4905 34.3522 25.6916 35.2258 26.0937C36.1133 26.482 36.7581 27.0158 37.1602 27.6953C37.5624 28.3748 37.7634 29.1444 37.7634 30.0041C37.7634 30.8638 37.5485 31.6612 37.1186 32.3961C36.6888 33.1172 36.0232 33.7065 35.1218 34.1641C34.2344 34.6078 33.0973 34.8297 31.7106 34.8297Z" fill="black" fill-opacity="0.3"/>
<path d="M14.3667 34.5801V32.3961L19.9827 27.0921C20.4264 26.69 20.7523 26.3294 20.9603 26.0105C21.1683 25.6916 21.3069 25.4004 21.3763 25.1369C21.4595 24.8734 21.5011 24.6308 21.5011 24.4089C21.5011 23.8265 21.3 23.3828 20.8979 23.0777C20.5096 22.7588 19.9341 22.5993 19.1715 22.5993C18.5613 22.5993 17.9928 22.7172 17.4659 22.9529C16.9528 23.1886 16.516 23.5561 16.1555 24.0553L13.7011 22.4745C14.2557 21.6425 15.0323 20.9838 16.0307 20.4985C17.0291 20.0132 18.18 19.7705 19.4835 19.7705C20.5651 19.7705 21.508 19.9508 22.3123 20.3113C23.1304 20.658 23.7613 21.1502 24.2051 21.7881C24.6627 22.426 24.8915 23.1886 24.8915 24.0761C24.8915 24.5476 24.8291 25.019 24.7043 25.4905C24.5933 25.9481 24.3576 26.4334 23.9971 26.9465C23.6504 27.4596 23.1373 28.035 22.4579 28.6729L17.7987 33.0617L17.1539 31.8345H25.3699V34.5801H14.3667Z" fill="black" fill-opacity="0.3"/>
<path d="M31.7106 33.5298C30.6984 33.5298 29.693 33.398 28.6946 33.1346C27.7101 32.8572 26.8642 32.469 26.157 31.9698L27.4882 29.3906C28.0429 29.7927 28.6808 30.1116 29.4018 30.3474C30.1368 30.5831 30.8786 30.701 31.6274 30.701C32.4733 30.701 33.1389 30.5346 33.6242 30.2018C34.1096 29.869 34.3522 29.4044 34.3522 28.8082C34.3522 28.4338 34.2552 28.101 34.061 27.8098C33.8669 27.5186 33.5202 27.2967 33.021 27.1442C32.5357 26.9916 31.8493 26.9154 30.9618 26.9154H27.2386L27.9874 18.7202H36.869V21.4242H29.1938L30.941 19.885L30.421 25.7298L28.6738 24.1906H31.7522C33.1944 24.1906 34.3522 24.3916 35.2258 24.7938C36.1133 25.182 36.7581 25.7159 37.1602 26.3954C37.5624 27.0748 37.7634 27.8444 37.7634 28.7042C37.7634 29.5639 37.5485 30.3612 37.1186 31.0962C36.6888 31.8172 36.0232 32.4066 35.1218 32.8642C34.2344 33.3079 33.0973 33.5298 31.7106 33.5298Z" fill="white"/>
<path d="M14.3667 33.2802V31.0962L19.9827 25.7922C20.4264 25.39 20.7523 25.0295 20.9603 24.7106C21.1683 24.3916 21.3069 24.1004 21.3763 23.837C21.4595 23.5735 21.5011 23.3308 21.5011 23.109C21.5011 22.5266 21.3 22.0828 20.8979 21.7778C20.5096 21.4588 19.9341 21.2994 19.1715 21.2994C18.5613 21.2994 17.9928 21.4172 17.4659 21.653C16.9528 21.8887 16.516 22.2562 16.1555 22.7554L13.7011 21.1746C14.2557 20.3426 15.0323 19.6839 16.0307 19.1986C17.0291 18.7132 18.18 18.4706 19.4835 18.4706C20.5651 18.4706 21.508 18.6508 22.3123 19.0114C23.1304 19.358 23.7613 19.8503 24.2051 20.4882C24.6627 21.126 24.8915 21.8887 24.8915 22.7762C24.8915 23.2476 24.8291 23.7191 24.7043 24.1906C24.5933 24.6482 24.3576 25.1335 23.9971 25.6466C23.6504 26.1596 23.1373 26.7351 22.4579 27.373L17.7987 31.7618L17.1539 30.5346H25.3699V33.2802H14.3667Z" fill="white"/>
<defs>
<linearGradient id="paint0_linear_42_2592" x1="25.9997" y1="0.512381" x2="25.9951" y2="52.0001" gradientUnits="userSpaceOnUse">
<stop stop-opacity="0"/>
<stop offset="1" stop-opacity="0.3"/>
</linearGradient>
<linearGradient id="paint1_linear_42_2592" x1="37.837" y1="11.262" x2="11.2572" y2="37.8441" gradientUnits="userSpaceOnUse">
<stop stop-opacity="0.25"/>
<stop offset="1" stop-opacity="0"/>
</linearGradient>
</defs>
</svg>
