<svg width="52" height="52" viewBox="0 0 52 52" fill="none" xmlns="http://www.w3.org/2000/svg">
<rect x="-0.000305176" y="0.00012207" width="52" height="52" rx="26" fill="#EFAC00"/>
<path fill-rule="evenodd" clip-rule="evenodd" d="M25.9997 52.0001C40.3591 52.0001 51.9997 40.3595 51.9997 26.0001C51.9997 11.6407 40.3591 0.00012207 25.9997 0.00012207C11.6403 0.00012207 -0.000305176 11.6407 -0.000305176 26.0001C-0.000305176 40.3595 11.6403 52.0001 25.9997 52.0001ZM25.9996 45.067C36.5299 45.067 45.0663 36.5306 45.0663 26.0003C45.0663 15.47 36.5299 6.93354 25.9996 6.93354C15.4694 6.93354 6.93301 15.47 6.93301 26.0003C6.93301 36.5306 15.4694 45.067 25.9996 45.067Z" fill="url(#paint0_linear_87_3917)"/>
<path d="M45.0664 26.0002C45.0664 36.5305 36.53 45.0669 25.9998 45.0669C15.4696 45.0669 6.93314 36.5305 6.93314 26.0002C6.93314 15.4699 15.4696 6.93347 25.9998 6.93347C36.53 6.93347 45.0664 15.4699 45.0664 26.0002Z" fill="url(#paint1_linear_87_3917)"/>
<path d="M50.5461 17.4282C49.2625 13.7525 47.1698 10.412 44.4224 7.65324L42.3038 9.76314C44.7353 12.2046 46.5873 15.1609 47.7233 18.4139L50.5461 17.4282Z" fill="white" fill-opacity="0.8"/>
<path d="M1.45352 34.5721C2.73714 38.2478 4.82987 41.5883 7.57724 44.347L9.69584 42.2371C7.26442 39.7957 5.41235 36.8393 4.27635 33.5863L1.45352 34.5721Z" fill="white" fill-opacity="0.8"/>
<path d="M1.45352 17.4282C2.73714 13.7525 4.82987 10.4119 7.57725 7.65324L9.69584 9.76313C7.26442 12.2046 5.41235 15.1609 4.27635 18.4139L1.45352 17.4282Z" fill="white" fill-opacity="0.8"/>
<path d="M50.5461 34.5721C49.2625 38.2478 47.1698 41.5883 44.4224 44.347L42.3038 42.2371C44.7353 39.7957 46.5873 36.8393 47.7233 33.5863L50.5461 34.5721Z" fill="white" fill-opacity="0.8"/>
<path d="M20.24 0.646139C22.1299 0.216807 24.0618 0.00012207 25.9999 0.00012207C27.9379 0.00012207 29.8698 0.216807 31.7597 0.646139L31.0973 3.56185C29.4248 3.18189 27.715 2.99012 25.9999 2.99012C24.2847 2.99012 22.5749 3.18189 20.9024 3.56185L20.24 0.646139Z" fill="white" fill-opacity="0.8"/>
<path d="M31.7596 51.3541C29.8698 51.7834 27.9378 52.0001 25.9998 52.0001C24.0618 52.0001 22.1299 51.7834 20.24 51.3541L20.9024 48.4384C22.5749 48.8184 24.2847 49.0101 25.9998 49.0101C27.715 49.0101 29.4247 48.8184 31.0973 48.4384L31.7596 51.3541Z" fill="white" fill-opacity="0.8"/>
<path d="M7.95982 19.7082C10.5673 12.254 17.667 6.89082 25.9998 6.89082C34.3336 6.89082 41.434 12.2554 44.0407 19.711L45.4189 19.2299C42.6192 11.1993 34.9848 5.43481 25.9998 5.43481C17.0155 5.43481 9.3817 11.1982 6.58136 19.2277L7.95982 19.7082Z" fill="white" fill-opacity="0.6"/>
<path d="M44.0405 32.2897C41.4337 39.7452 34.3334 45.1095 25.9997 45.1095C17.6672 45.1095 10.5676 39.7466 7.95994 32.2927L6.58174 32.7739C9.38246 40.8027 17.016 46.5655 25.9997 46.5655C34.9845 46.5655 42.6185 40.8016 45.4185 32.7714L44.0405 32.2897Z" fill="white" fill-opacity="0.6"/>
<path d="M51.9911 26.6761C51.9968 26.4515 51.9997 26.2261 51.9997 26.0001C51.9997 11.6407 40.3591 0.00012207 25.9997 0.00012207C11.6403 0.00012207 -0.000305176 11.6407 -0.000305176 26.0001C-0.000305176 26.2261 0.00257879 26.4515 0.00831193 26.6761C0.366817 12.6292 11.8663 1.35212 25.9997 1.35212C40.1331 1.35212 51.6326 12.6292 51.9911 26.6761Z" fill="white" fill-opacity="0.3"/>
<path d="M0.00846441 25.3241C0.00273167 25.5487 -0.000152568 25.7741 -0.000152588 26.0001C-0.000153843 40.3595 11.6404 52.0001 25.9998 52.0001C40.3592 52.0001 51.9998 40.3595 51.9998 26.0001C51.9998 25.7741 51.997 25.5487 51.9912 25.3241C51.6327 39.3711 40.1332 50.6481 25.9998 50.6481C11.8665 50.6481 0.366975 39.3711 0.00846441 25.3241Z" fill="black" fill-opacity="0.2"/>
<defs>
<linearGradient id="paint0_linear_87_3917" x1="25.9997" y1="0.512381" x2="25.9951" y2="52.0001" gradientUnits="userSpaceOnUse">
<stop stop-opacity="0"/>
<stop offset="1" stop-opacity="0.3"/>
</linearGradient>
<linearGradient id="paint1_linear_87_3917" x1="37.837" y1="11.262" x2="11.2572" y2="37.8441" gradientUnits="userSpaceOnUse">
<stop stop-opacity="0.25"/>
<stop offset="1" stop-opacity="0"/>
</linearGradient>
</defs>
</svg>
