<svg width="52" height="52" viewBox="0 0 52 52" fill="none" xmlns="http://www.w3.org/2000/svg">
<rect x="-0.000305176" y="0.00012207" width="52" height="52" rx="26" fill="#DE138E"/>
<path fill-rule="evenodd" clip-rule="evenodd" d="M25.9997 52.0001C40.3591 52.0001 51.9997 40.3595 51.9997 26.0001C51.9997 11.6407 40.3591 0.00012207 25.9997 0.00012207C11.6403 0.00012207 -0.000305176 11.6407 -0.000305176 26.0001C-0.000305176 40.3595 11.6403 52.0001 25.9997 52.0001ZM25.9996 45.067C36.5299 45.067 45.0663 36.5306 45.0663 26.0003C45.0663 15.47 36.5299 6.93354 25.9996 6.93354C15.4694 6.93354 6.93301 15.47 6.93301 26.0003C6.93301 36.5306 15.4694 45.067 25.9996 45.067Z" fill="url(#paint0_linear_42_2637)"/>
<path d="M45.0664 26.0002C45.0664 36.5305 36.53 45.0669 25.9998 45.0669C15.4696 45.0669 6.93314 36.5305 6.93314 26.0002C6.93314 15.4699 15.4696 6.93347 25.9998 6.93347C36.53 6.93347 45.0664 15.4699 45.0664 26.0002Z" fill="url(#paint1_linear_42_2637)"/>
<path d="M50.5461 17.428C49.2625 13.7523 47.1698 10.4118 44.4224 7.65312L42.3038 9.76301C44.7352 12.2045 46.5873 15.1608 47.7233 18.4138L50.5461 17.428Z" fill="white" fill-opacity="0.8"/>
<path d="M1.45349 34.572C2.73711 38.2477 4.82984 41.5882 7.57721 44.3469L9.69581 42.237C7.26439 39.7955 5.41232 36.8392 4.27632 33.5862L1.45349 34.572Z" fill="white" fill-opacity="0.8"/>
<path d="M1.45349 17.428C2.73711 13.7523 4.82984 10.4118 7.57722 7.65311L9.69581 9.76301C7.26439 12.2045 5.41232 15.1608 4.27632 18.4138L1.45349 17.428Z" fill="white" fill-opacity="0.8"/>
<path d="M50.5461 34.572C49.2625 38.2477 47.1698 41.5882 44.4224 44.3469L42.3038 42.237C44.7352 39.7955 46.5873 36.8392 47.7233 33.5862L50.5461 34.572Z" fill="white" fill-opacity="0.8"/>
<path d="M20.24 0.646017C22.1299 0.216685 24.0618 0 25.9998 0C27.9378 0 29.8698 0.216685 31.7596 0.646017L31.0973 3.56173C29.4247 3.18177 27.715 2.99 25.9998 2.99C24.2847 2.99 22.5749 3.18177 20.9024 3.56173L20.24 0.646017Z" fill="white" fill-opacity="0.8"/>
<path d="M31.7596 51.354C29.8697 51.7833 27.9378 52 25.9998 52C24.0618 52 22.1298 51.7833 20.24 51.354L20.9023 48.4383C22.5749 48.8182 24.2846 49.01 25.9998 49.01C27.7149 49.01 29.4247 48.8182 31.0972 48.4383L31.7596 51.354Z" fill="white" fill-opacity="0.8"/>
<path d="M7.95982 19.7081C10.5673 12.2539 17.667 6.8907 25.9998 6.8907C34.3336 6.8907 41.434 12.2553 44.0407 19.7109L45.4189 19.2298C42.6192 11.1992 34.9848 5.43469 25.9998 5.43469C17.0155 5.43469 9.3817 11.1981 6.58136 19.2276L7.95982 19.7081Z" fill="white" fill-opacity="0.6"/>
<path d="M44.0405 32.2896C41.4337 39.745 34.3334 45.1094 25.9997 45.1094C17.6672 45.1094 10.5676 39.7465 7.95994 32.2926L6.58174 32.7738C9.38246 40.8026 17.016 46.5654 25.9997 46.5654C34.9845 46.5654 42.6185 40.8014 45.4185 32.7713L44.0405 32.2896Z" fill="white" fill-opacity="0.6"/>
<path d="M51.9911 26.6761C51.9968 26.4515 51.9997 26.2261 51.9997 26.0001C51.9997 11.6407 40.3591 0.00012207 25.9997 0.00012207C11.6403 0.00012207 -0.000305176 11.6407 -0.000305176 26.0001C-0.000305176 26.2261 0.00257879 26.4515 0.00831193 26.6761C0.366817 12.6292 11.8663 1.35212 25.9997 1.35212C40.1331 1.35212 51.6326 12.6292 51.9911 26.6761Z" fill="white" fill-opacity="0.3"/>
<path d="M0.0084339 25.324C0.00270115 25.5486 -0.000183086 25.774 -0.000183105 26C-0.000184361 40.3594 11.6404 52 25.9998 52C40.3592 52 51.9998 40.3594 51.9998 26C51.9998 25.774 51.9969 25.5486 51.9912 25.324C51.6327 39.371 40.1332 50.648 25.9998 50.648C11.8664 50.648 0.366944 39.3709 0.0084339 25.324Z" fill="black" fill-opacity="0.2"/>
<path d="M12.8535 34.5801V32.3961L18.4695 27.0921C18.9132 26.69 19.2391 26.3294 19.4471 26.0105C19.6551 25.6916 19.7937 25.4004 19.8631 25.1369C19.9463 24.8734 19.9879 24.6308 19.9879 24.4089C19.9879 23.8265 19.7868 23.3828 19.3847 23.0777C18.9964 22.7588 18.4209 22.5993 17.6583 22.5993C17.0481 22.5993 16.4796 22.7172 15.9527 22.9529C15.4396 23.1886 15.0028 23.5561 14.6423 24.0553L12.1879 22.4745C12.7425 21.6425 13.5191 20.9838 14.5175 20.4985C15.5159 20.0132 16.6668 19.7705 17.9703 19.7705C19.0519 19.7705 19.9948 19.9508 20.7991 20.3113C21.6172 20.658 22.2481 21.1502 22.6919 21.7881C23.1495 22.426 23.3783 23.1886 23.3783 24.0761C23.3783 24.5476 23.3159 25.019 23.1911 25.4905C23.0801 25.9481 22.8444 26.4334 22.4839 26.9465C22.1372 27.4596 21.6241 28.035 20.9447 28.6729L16.2855 33.0617L15.6407 31.8345H23.8567V34.5801H12.8535Z" fill="black" fill-opacity="0.3"/>
<path d="M29.1782 31.2521L28.991 27.3625L35.959 20.0201H39.703L33.4214 26.7801L31.5494 28.7769L29.1782 31.2521ZM26.1622 34.5801V20.0201H29.511V34.5801H26.1622ZM36.1254 34.5801L30.9462 28.2361L33.151 25.8441L40.0566 34.5801H36.1254Z" fill="black" fill-opacity="0.3"/>
<path d="M12.8535 33.2802V31.0962L18.4695 25.7922C18.9132 25.39 19.2391 25.0295 19.4471 24.7106C19.6551 24.3916 19.7937 24.1004 19.8631 23.837C19.9463 23.5735 19.9879 23.3308 19.9879 23.109C19.9879 22.5266 19.7868 22.0828 19.3847 21.7778C18.9964 21.4588 18.4209 21.2994 17.6583 21.2994C17.0481 21.2994 16.4796 21.4172 15.9527 21.653C15.4396 21.8887 15.0028 22.2562 14.6423 22.7554L12.1879 21.1746C12.7425 20.3426 13.5191 19.6839 14.5175 19.1986C15.5159 18.7132 16.6668 18.4706 17.9703 18.4706C19.0519 18.4706 19.9948 18.6508 20.7991 19.0114C21.6172 19.358 22.2481 19.8503 22.6919 20.4882C23.1495 21.126 23.3783 21.8887 23.3783 22.7762C23.3783 23.2476 23.3159 23.7191 23.1911 24.1906C23.0801 24.6482 22.8444 25.1335 22.4839 25.6466C22.1372 26.1596 21.6241 26.7351 20.9447 27.373L16.2855 31.7618L15.6407 30.5346H23.8567V33.2802H12.8535Z" fill="white"/>
<path d="M29.1782 29.9522L28.991 26.0626L35.959 18.7202H39.703L33.4214 25.4802L31.5494 27.477L29.1782 29.9522ZM26.1622 33.2802V18.7202H29.511V33.2802H26.1622ZM36.1254 33.2802L30.9462 26.9362L33.151 24.5442L40.0566 33.2802H36.1254Z" fill="white"/>
<defs>
<linearGradient id="paint0_linear_42_2637" x1="25.9997" y1="0.512381" x2="25.9951" y2="52.0001" gradientUnits="userSpaceOnUse">
<stop stop-opacity="0"/>
<stop offset="1" stop-opacity="0.3"/>
</linearGradient>
<linearGradient id="paint1_linear_42_2637" x1="37.837" y1="11.262" x2="11.2572" y2="37.8441" gradientUnits="userSpaceOnUse">
<stop stop-opacity="0.25"/>
<stop offset="1" stop-opacity="0"/>
</linearGradient>
</defs>
</svg>
