<svg width="52" height="52" viewBox="0 0 52 52" fill="none" xmlns="http://www.w3.org/2000/svg">
<rect x="-0.000305176" y="0.00012207" width="52" height="52" rx="26" fill="#00A775"/>
<path fill-rule="evenodd" clip-rule="evenodd" d="M25.9997 52.0001C40.3591 52.0001 51.9997 40.3595 51.9997 26.0001C51.9997 11.6407 40.3591 0.00012207 25.9997 0.00012207C11.6403 0.00012207 -0.000305176 11.6407 -0.000305176 26.0001C-0.000305176 40.3595 11.6403 52.0001 25.9997 52.0001ZM25.9996 45.067C36.5299 45.067 45.0663 36.5306 45.0663 26.0003C45.0663 15.47 36.5299 6.93354 25.9996 6.93354C15.4694 6.93354 6.93301 15.47 6.93301 26.0003C6.93301 36.5306 15.4694 45.067 25.9996 45.067Z" fill="url(#paint0_linear_42_2562)"/>
<path d="M45.0664 26.0002C45.0664 36.5305 36.53 45.0669 25.9998 45.0669C15.4696 45.0669 6.93316 36.5305 6.93316 26.0002C6.93316 15.4699 15.4696 6.93347 25.9998 6.93347C36.53 6.93347 45.0664 15.4699 45.0664 26.0002Z" fill="url(#paint1_linear_42_2562)"/>
<path d="M50.5461 17.428C49.2625 13.7523 47.1698 10.4118 44.4224 7.65312L42.3038 9.76301C44.7353 12.2045 46.5873 15.1608 47.7233 18.4138L50.5461 17.428Z" fill="white" fill-opacity="0.8"/>
<path d="M1.45352 34.572C2.73714 38.2477 4.82987 41.5882 7.57724 44.3469L9.69584 42.237C7.26442 39.7955 5.41235 36.8392 4.27635 33.5862L1.45352 34.572Z" fill="white" fill-opacity="0.8"/>
<path d="M1.45352 17.428C2.73714 13.7523 4.82987 10.4118 7.57725 7.65311L9.69584 9.76301C7.26442 12.2045 5.41235 15.1608 4.27635 18.4138L1.45352 17.428Z" fill="white" fill-opacity="0.8"/>
<path d="M50.5461 34.572C49.2625 38.2477 47.1698 41.5882 44.4224 44.3469L42.3038 42.237C44.7353 39.7955 46.5873 36.8392 47.7233 33.5862L50.5461 34.572Z" fill="white" fill-opacity="0.8"/>
<path d="M20.24 0.646017C22.1299 0.216685 24.0618 0 25.9999 0C27.9379 0 29.8698 0.216685 31.7597 0.646017L31.0973 3.56173C29.4248 3.18177 27.715 2.99 25.9999 2.99C24.2847 2.99 22.5749 3.18177 20.9024 3.56173L20.24 0.646017Z" fill="white" fill-opacity="0.8"/>
<path d="M31.7596 51.354C29.8698 51.7833 27.9378 52 25.9998 52C24.0618 52 22.1299 51.7833 20.24 51.354L20.9024 48.4383C22.5749 48.8182 24.2847 49.01 25.9998 49.01C27.715 49.01 29.4247 48.8182 31.0973 48.4383L31.7596 51.354Z" fill="white" fill-opacity="0.8"/>
<path d="M7.9598 19.7081C10.5673 12.2539 17.667 6.8907 25.9997 6.8907C34.3336 6.8907 41.4339 12.2553 44.0406 19.7109L45.4189 19.2298C42.6192 11.1992 34.9848 5.43469 25.9997 5.43469C17.0155 5.43469 9.38168 11.1981 6.58134 19.2276L7.9598 19.7081Z" fill="white" fill-opacity="0.6"/>
<path d="M44.0405 32.2896C41.4337 39.745 34.3334 45.1094 25.9997 45.1094C17.6671 45.1094 10.5676 39.7465 7.95993 32.2926L6.58173 32.7738C9.38244 40.8026 17.0159 46.5654 25.9997 46.5654C34.9844 46.5654 42.6185 40.8014 45.4185 32.7713L44.0405 32.2896Z" fill="white" fill-opacity="0.6"/>
<path d="M51.9911 26.6761C51.9968 26.4515 51.9997 26.2261 51.9997 26.0001C51.9997 11.6407 40.3591 0.00012207 25.9997 0.00012207C11.6403 0.00012207 -0.000305176 11.6407 -0.000305176 26.0001C-0.000305176 26.2261 0.00257879 26.4515 0.00831193 26.6761C0.366817 12.6292 11.8663 1.35212 25.9997 1.35212C40.1331 1.35212 51.6326 12.6292 51.9911 26.6761Z" fill="white" fill-opacity="0.3"/>
<path d="M0.00846441 25.324C0.00273167 25.5486 -0.000152568 25.774 -0.000152588 26C-0.000153843 40.3594 11.6404 52 25.9998 52C40.3592 52 51.9998 40.3594 51.9998 26C51.9998 25.774 51.997 25.5486 51.9912 25.324C51.6327 39.371 40.1332 50.648 25.9998 50.648C11.8665 50.648 0.366975 39.3709 0.00846441 25.324Z" fill="black" fill-opacity="0.2"/>
<path d="M25.5763 34.8297C24.564 34.8297 23.5587 34.698 22.5603 34.4345C21.5758 34.1572 20.7299 33.7689 20.0227 33.2697L21.3539 30.6905C21.9086 31.0927 22.5464 31.4116 23.2675 31.6473C24.0024 31.8831 24.7443 32.0009 25.4931 32.0009C26.339 32.0009 27.0046 31.8345 27.4899 31.5017C27.9752 31.1689 28.2179 30.7044 28.2179 30.1081C28.2179 29.7337 28.1208 29.4009 27.9267 29.1097C27.7326 28.8185 27.3859 28.5967 26.8867 28.4441C26.4014 28.2916 25.715 28.2153 24.8275 28.2153H21.1043L21.8531 20.0201H30.7347V22.7241H23.0595L24.8067 21.1849L24.2867 27.0297L22.5395 25.4905H25.6179C27.06 25.4905 28.2179 25.6916 29.0915 26.0937C29.979 26.482 30.6238 27.0159 31.0259 27.6953C31.428 28.3748 31.6291 29.1444 31.6291 30.0041C31.6291 30.8639 31.4142 31.6612 30.9843 32.3961C30.5544 33.1172 29.8888 33.7065 28.9875 34.1641C28.1 34.6079 26.963 34.8297 25.5763 34.8297Z" fill="black" fill-opacity="0.3"/>
<path d="M25.5763 33.5297C24.564 33.5297 23.5587 33.398 22.5603 33.1345C21.5758 32.8572 20.7299 32.4689 20.0227 31.9697L21.3539 29.3905C21.9086 29.7926 22.5464 30.1116 23.2675 30.3473C24.0024 30.583 24.7443 30.7009 25.4931 30.7009C26.339 30.7009 27.0046 30.5345 27.4899 30.2017C27.9752 29.8689 28.2179 29.4044 28.2179 28.8081C28.2179 28.4337 28.1208 28.1009 27.9267 27.8097C27.7326 27.5185 27.3859 27.2966 26.8867 27.1441C26.4014 26.9916 25.715 26.9153 24.8275 26.9153H21.1043L21.8531 18.7201H30.7347V21.4241H23.0595L24.8067 19.8849L24.2867 25.7297L22.5395 24.1905H25.6179C27.06 24.1905 28.2179 24.3916 29.0915 24.7937C29.979 25.182 30.6238 25.7158 31.0259 26.3953C31.428 27.0748 31.6291 27.8444 31.6291 28.7041C31.6291 29.5638 31.4142 30.3612 30.9843 31.0961C30.5544 31.8172 29.8888 32.4065 28.9875 32.8641C28.1 33.3078 26.963 33.5297 25.5763 33.5297Z" fill="white"/>
<defs>
<linearGradient id="paint0_linear_42_2562" x1="25.9997" y1="0.512381" x2="25.9951" y2="52.0001" gradientUnits="userSpaceOnUse">
<stop stop-opacity="0"/>
<stop offset="1" stop-opacity="0.3"/>
</linearGradient>
<linearGradient id="paint1_linear_42_2562" x1="37.837" y1="11.262" x2="11.2572" y2="37.8441" gradientUnits="userSpaceOnUse">
<stop stop-opacity="0.25"/>
<stop offset="1" stop-opacity="0"/>
</linearGradient>
</defs>
</svg>
