<svg width="52" height="52" viewBox="0 0 52 52" fill="none" xmlns="http://www.w3.org/2000/svg">
<rect x="-0.000305176" y="0.00012207" width="52" height="52" rx="26" fill="#800AC8"/>
<path fill-rule="evenodd" clip-rule="evenodd" d="M25.9997 52.0001C40.3591 52.0001 51.9997 40.3595 51.9997 26.0001C51.9997 11.6407 40.3591 0.00012207 25.9997 0.00012207C11.6403 0.00012207 -0.000305176 11.6407 -0.000305176 26.0001C-0.000305176 40.3595 11.6403 52.0001 25.9997 52.0001ZM25.9996 45.067C36.5299 45.067 45.0663 36.5306 45.0663 26.0003C45.0663 15.47 36.5299 6.93354 25.9996 6.93354C15.4694 6.93354 6.93301 15.47 6.93301 26.0003C6.93301 36.5306 15.4694 45.067 25.9996 45.067Z" fill="url(#paint0_linear_42_2622)"/>
<path d="M45.0664 26.0002C45.0664 36.5305 36.53 45.0669 25.9998 45.0669C15.4696 45.0669 6.93314 36.5305 6.93314 26.0002C6.93314 15.4699 15.4696 6.93347 25.9998 6.93347C36.53 6.93347 45.0664 15.4699 45.0664 26.0002Z" fill="url(#paint1_linear_42_2622)"/>
<path d="M50.5461 17.428C49.2625 13.7523 47.1698 10.4118 44.4224 7.65312L42.3038 9.76301C44.7353 12.2045 46.5873 15.1608 47.7233 18.4138L50.5461 17.428Z" fill="white" fill-opacity="0.8"/>
<path d="M1.45352 34.572C2.73714 38.2477 4.82987 41.5882 7.57724 44.3469L9.69584 42.237C7.26442 39.7955 5.41235 36.8392 4.27635 33.5862L1.45352 34.572Z" fill="white" fill-opacity="0.8"/>
<path d="M1.45352 17.428C2.73714 13.7523 4.82987 10.4118 7.57725 7.65311L9.69584 9.76301C7.26442 12.2045 5.41235 15.1608 4.27635 18.4138L1.45352 17.428Z" fill="white" fill-opacity="0.8"/>
<path d="M50.5461 34.572C49.2625 38.2477 47.1698 41.5882 44.4224 44.3469L42.3038 42.237C44.7353 39.7955 46.5873 36.8392 47.7233 33.5862L50.5461 34.572Z" fill="white" fill-opacity="0.8"/>
<path d="M20.24 0.646017C22.1299 0.216685 24.0618 0 25.9999 0C27.9379 0 29.8698 0.216685 31.7597 0.646017L31.0973 3.56173C29.4248 3.18177 27.715 2.99 25.9999 2.99C24.2847 2.99 22.5749 3.18177 20.9024 3.56173L20.24 0.646017Z" fill="white" fill-opacity="0.8"/>
<path d="M31.7596 51.354C29.8698 51.7833 27.9378 52 25.9998 52C24.0618 52 22.1299 51.7833 20.24 51.354L20.9024 48.4383C22.5749 48.8182 24.2847 49.01 25.9998 49.01C27.715 49.01 29.4247 48.8182 31.0973 48.4383L31.7596 51.354Z" fill="white" fill-opacity="0.8"/>
<path d="M7.95982 19.7081C10.5673 12.2539 17.667 6.8907 25.9998 6.8907C34.3336 6.8907 41.434 12.2553 44.0407 19.7109L45.4189 19.2298C42.6192 11.1992 34.9848 5.43469 25.9998 5.43469C17.0155 5.43469 9.3817 11.1981 6.58136 19.2276L7.95982 19.7081Z" fill="white" fill-opacity="0.6"/>
<path d="M44.0405 32.2896C41.4337 39.745 34.3334 45.1094 25.9997 45.1094C17.6672 45.1094 10.5676 39.7465 7.95994 32.2926L6.58174 32.7738C9.38246 40.8026 17.016 46.5654 25.9997 46.5654C34.9845 46.5654 42.6185 40.8014 45.4185 32.7713L44.0405 32.2896Z" fill="white" fill-opacity="0.6"/>
<path d="M51.9911 26.6761C51.9968 26.4515 51.9997 26.2261 51.9997 26.0001C51.9997 11.6407 40.3591 0.00012207 25.9997 0.00012207C11.6403 0.00012207 -0.000305176 11.6407 -0.000305176 26.0001C-0.000305176 26.2261 0.00257879 26.4515 0.00831193 26.6761C0.366817 12.6292 11.8663 1.35212 25.9997 1.35212C40.1331 1.35212 51.6326 12.6292 51.9911 26.6761Z" fill="white" fill-opacity="0.3"/>
<path d="M0.00846441 25.324C0.00273167 25.5486 -0.000152568 25.774 -0.000152588 26C-0.000153843 40.3594 11.6404 52 25.9998 52C40.3592 52 51.9998 40.3594 51.9998 26C51.9998 25.774 51.997 25.5486 51.9912 25.324C51.6327 39.371 40.1332 50.648 25.9998 50.648C11.8665 50.648 0.366975 39.3709 0.00846441 25.324Z" fill="black" fill-opacity="0.2"/>
<path d="M14.3672 33.2196C13.5574 33.2196 12.7531 33.1142 11.9544 32.9034C11.1668 32.6816 10.4901 32.371 9.92435 31.9716L10.9893 29.9082C11.433 30.2299 11.9433 30.4851 12.5202 30.6737C13.1081 30.8623 13.7016 30.9566 14.3007 30.9566C14.9774 30.9566 15.5098 30.8234 15.8981 30.5572C16.2864 30.291 16.4805 29.9193 16.4805 29.4423C16.4805 29.1428 16.4029 28.8766 16.2475 28.6436C16.0922 28.4106 15.8149 28.2331 15.4155 28.1111C15.0273 27.9891 14.4782 27.9281 13.7682 27.9281H10.7896L11.3887 21.3719H18.4939V23.5351H12.3538L13.7515 22.3038L13.3355 26.9796L11.9378 25.7482H14.4005C15.5542 25.7482 16.4805 25.9091 17.1794 26.2308C17.8894 26.5414 18.4052 26.9685 18.7269 27.5121C19.0486 28.0557 19.2095 28.6713 19.2095 29.3591C19.2095 30.0469 19.0375 30.6848 18.6936 31.2727C18.3497 31.8496 17.8173 32.321 17.0962 32.6871C16.3862 33.0421 15.4766 33.2196 14.3672 33.2196Z" fill="black" fill-opacity="0.3"/>
<path d="M25.2952 33.2196C24.3411 33.2196 23.4869 32.9866 22.7326 32.5207C21.9783 32.0437 21.3848 31.3559 20.9521 30.4574C20.5195 29.5588 20.3032 28.4717 20.3032 27.1959C20.3032 25.9202 20.5195 24.833 20.9521 23.9345C21.3848 23.0359 21.9783 22.3537 22.7326 21.8878C23.4869 21.4107 24.3411 21.1722 25.2952 21.1722C26.2603 21.1722 27.1145 21.4107 27.8577 21.8878C28.6121 22.3537 29.2056 23.0359 29.6382 23.9345C30.0708 24.833 30.2872 25.9202 30.2872 27.1959C30.2872 28.4717 30.0708 29.5588 29.6382 30.4574C29.2056 31.3559 28.6121 32.0437 27.8577 32.5207C27.1145 32.9866 26.2603 33.2196 25.2952 33.2196ZM25.2952 30.9399C25.75 30.9399 26.1438 30.8123 26.4766 30.5572C26.8205 30.3021 27.0867 29.8971 27.2753 29.3425C27.475 28.7878 27.5748 28.0723 27.5748 27.1959C27.5748 26.3195 27.475 25.604 27.2753 25.0494C27.0867 24.4947 26.8205 24.0898 26.4766 23.8346C26.1438 23.5795 25.75 23.4519 25.2952 23.4519C24.8514 23.4519 24.4576 23.5795 24.1137 23.8346C23.7809 24.0898 23.5147 24.4947 23.315 25.0494C23.1264 25.604 23.0321 26.3195 23.0321 27.1959C23.0321 28.0723 23.1264 28.7878 23.315 29.3425C23.5147 29.8971 23.7809 30.3021 24.1137 30.5572C24.4576 30.8123 24.8514 30.9399 25.2952 30.9399Z" fill="black" fill-opacity="0.3"/>
<path d="M36.5889 33.2196C35.6349 33.2196 34.7807 32.9866 34.0263 32.5207C33.272 32.0437 32.6785 31.3559 32.2459 30.4574C31.8132 29.5588 31.5969 28.4717 31.5969 27.1959C31.5969 25.9202 31.8132 24.833 32.2459 23.9345C32.6785 23.0359 33.272 22.3537 34.0263 21.8878C34.7807 21.4107 35.6349 21.1722 36.5889 21.1722C37.554 21.1722 38.4082 21.4107 39.1515 21.8878C39.9058 22.3537 40.4993 23.0359 40.9319 23.9345C41.3646 24.833 41.5809 25.9202 41.5809 27.1959C41.5809 28.4717 41.3646 29.5588 40.9319 30.4574C40.4993 31.3559 39.9058 32.0437 39.1515 32.5207C38.4082 32.9866 37.554 33.2196 36.5889 33.2196ZM36.5889 30.9399C37.0437 30.9399 37.4375 30.8123 37.7703 30.5572C38.1142 30.3021 38.3805 29.8971 38.5691 29.3425C38.7687 28.7878 38.8686 28.0723 38.8686 27.1959C38.8686 26.3195 38.7687 25.604 38.5691 25.0494C38.3805 24.4947 38.1142 24.0898 37.7703 23.8346C37.4375 23.5795 37.0437 23.4519 36.5889 23.4519C36.1452 23.4519 35.7514 23.5795 35.4075 23.8346C35.0747 24.0898 34.8084 24.4947 34.6087 25.0494C34.4202 25.604 34.3259 26.3195 34.3259 27.1959C34.3259 28.0723 34.4202 28.7878 34.6087 29.3425C34.8084 29.8971 35.0747 30.3021 35.4075 30.5572C35.7514 30.8123 36.1452 30.9399 36.5889 30.9399Z" fill="black" fill-opacity="0.3"/>
<path d="M14.3672 31.9197C13.5574 31.9197 12.7531 31.8143 11.9544 31.6035C11.1668 31.3816 10.4901 31.071 9.92435 30.6717L10.9893 28.6083C11.433 28.93 11.9433 29.1852 12.5202 29.3738C13.1081 29.5623 13.7016 29.6566 14.3007 29.6566C14.9774 29.6566 15.5098 29.5235 15.8981 29.2573C16.2864 28.991 16.4805 28.6194 16.4805 28.1424C16.4805 27.8429 16.4029 27.5766 16.2475 27.3437C16.0922 27.1107 15.8149 26.9332 15.4155 26.8112C15.0273 26.6892 14.4782 26.6282 13.7682 26.6282H10.7896L11.3887 20.072H18.4939V22.2352H12.3538L13.7515 21.0038L13.3355 25.6797L11.9378 24.4483H14.4005C15.5542 24.4483 16.4805 24.6092 17.1794 24.9309C17.8894 25.2415 18.4052 25.6686 18.7269 26.2122C19.0486 26.7557 19.2095 27.3714 19.2095 28.0592C19.2095 28.747 19.0375 29.3848 18.6936 29.9728C18.3497 30.5496 17.8173 31.0211 17.0962 31.3872C16.3862 31.7422 15.4766 31.9197 14.3672 31.9197Z" fill="white"/>
<path d="M25.2952 31.9197C24.3411 31.9197 23.4869 31.6867 22.7326 31.2208C21.9783 30.7438 21.3848 30.056 20.9521 29.1574C20.5195 28.2589 20.3032 27.1717 20.3032 25.896C20.3032 24.6203 20.5195 23.5331 20.9521 22.6346C21.3848 21.736 21.9783 21.0538 22.7326 20.5878C23.4869 20.1108 24.3411 19.8723 25.2952 19.8723C26.2603 19.8723 27.1145 20.1108 27.8577 20.5878C28.6121 21.0538 29.2056 21.736 29.6382 22.6346C30.0708 23.5331 30.2872 24.6203 30.2872 25.896C30.2872 27.1717 30.0708 28.2589 29.6382 29.1574C29.2056 30.056 28.6121 30.7438 27.8577 31.2208C27.1145 31.6867 26.2603 31.9197 25.2952 31.9197ZM25.2952 29.64C25.75 29.64 26.1438 29.5124 26.4766 29.2573C26.8205 29.0021 27.0867 28.5972 27.2753 28.0426C27.475 27.4879 27.5748 26.7724 27.5748 25.896C27.5748 25.0196 27.475 24.3041 27.2753 23.7494C27.0867 23.1948 26.8205 22.7899 26.4766 22.5347C26.1438 22.2796 25.75 22.152 25.2952 22.152C24.8514 22.152 24.4576 22.2796 24.1137 22.5347C23.7809 22.7899 23.5147 23.1948 23.315 23.7494C23.1264 24.3041 23.0321 25.0196 23.0321 25.896C23.0321 26.7724 23.1264 27.4879 23.315 28.0426C23.5147 28.5972 23.7809 29.0021 24.1137 29.2573C24.4576 29.5124 24.8514 29.64 25.2952 29.64Z" fill="white"/>
<path d="M36.5889 31.9197C35.6349 31.9197 34.7807 31.6867 34.0263 31.2208C33.272 30.7438 32.6785 30.056 32.2459 29.1574C31.8132 28.2589 31.5969 27.1717 31.5969 25.896C31.5969 24.6203 31.8132 23.5331 32.2459 22.6346C32.6785 21.736 33.272 21.0538 34.0263 20.5878C34.7807 20.1108 35.6349 19.8723 36.5889 19.8723C37.554 19.8723 38.4082 20.1108 39.1515 20.5878C39.9058 21.0538 40.4993 21.736 40.9319 22.6346C41.3646 23.5331 41.5809 24.6203 41.5809 25.896C41.5809 27.1717 41.3646 28.2589 40.9319 29.1574C40.4993 30.056 39.9058 30.7438 39.1515 31.2208C38.4082 31.6867 37.554 31.9197 36.5889 31.9197ZM36.5889 29.64C37.0437 29.64 37.4375 29.5124 37.7703 29.2573C38.1142 29.0021 38.3805 28.5972 38.5691 28.0426C38.7687 27.4879 38.8686 26.7724 38.8686 25.896C38.8686 25.0196 38.7687 24.3041 38.5691 23.7494C38.3805 23.1948 38.1142 22.7899 37.7703 22.5347C37.4375 22.2796 37.0437 22.152 36.5889 22.152C36.1452 22.152 35.7514 22.2796 35.4075 22.5347C35.0747 22.7899 34.8084 23.1948 34.6087 23.7494C34.4202 24.3041 34.3259 25.0196 34.3259 25.896C34.3259 26.7724 34.4202 27.4879 34.6087 28.0426C34.8084 28.5972 35.0747 29.0021 35.4075 29.2573C35.7514 29.5124 36.1452 29.64 36.5889 29.64Z" fill="white"/>
<defs>
<linearGradient id="paint0_linear_42_2622" x1="25.9997" y1="0.512381" x2="25.9951" y2="52.0001" gradientUnits="userSpaceOnUse">
<stop stop-opacity="0"/>
<stop offset="1" stop-opacity="0.3"/>
</linearGradient>
<linearGradient id="paint1_linear_42_2622" x1="37.837" y1="11.262" x2="11.2572" y2="37.8441" gradientUnits="userSpaceOnUse">
<stop stop-opacity="0.25"/>
<stop offset="1" stop-opacity="0"/>
</linearGradient>
</defs>
</svg>
