<svg width="144" height="64" viewBox="0 0 144 64" fill="none" xmlns="http://www.w3.org/2000/svg">
<path d="M0.340827 46.5428C6.56184 33.0318 16.2852 21.5441 28.4431 13.3412C40.601 5.13831 54.7232 0.537565 69.2588 0.0441944L70.5287 39.5659C63.0602 39.8194 55.804 42.1833 49.5571 46.3981C43.3102 50.6128 38.3143 56.5153 35.1178 63.4575L0.340827 46.5428Z" fill="#252228"/>
<path d="M71.8708 -0.00012207C86.9024 -0.000121886 101.623 4.39996 114.31 12.6852C126.997 20.9705 137.126 32.7982 143.511 46.7842L108.681 63.5815C105.4 56.3953 100.196 50.3181 93.6768 46.061C87.1579 41.804 79.5942 39.5432 71.8708 39.5432V-0.00012207Z" fill="#252228"/>
<path d="M36.1044 8.78103C47.2445 2.97992 59.5622 -0.0290696 72.0506 8.77882e-05C84.5389 0.0292452 96.8433 3.09572 107.958 8.94879L90.4126 44.1412C84.702 41.1338 78.3798 39.5582 71.9632 39.5433C65.5465 39.5283 59.2175 41.0743 53.4936 44.055L36.1044 8.78103Z" fill="#941E1E"/>
<g filter="url(#filter0_dd_26_2714)">
<ellipse cx="72.0001" cy="43.818" rx="8.93023" ry="9.22405" fill="white"/>
<ellipse cx="72.0001" cy="43.818" rx="8.93023" ry="9.22405" fill="url(#paint0_radial_26_2714)"/>
</g>
<defs>
<filter id="filter0_dd_26_2714" x="56.4588" y="30.2714" width="31.0826" height="31.6703" filterUnits="userSpaceOnUse" color-interpolation-filters="sRGB">
<feFlood flood-opacity="0" result="BackgroundImageFix"/>
<feColorMatrix in="SourceAlpha" type="matrix" values="0 0 0 0 0 0 0 0 0 0 0 0 0 0 0 0 0 0 127 0" result="hardAlpha"/>
<feOffset dy="1.01709"/>
<feGaussianBlur stdDeviation="1.01709"/>
<feColorMatrix type="matrix" values="0 0 0 0 0 0 0 0 0 0 0 0 0 0 0 0 0 0 0.25 0"/>
<feBlend mode="normal" in2="BackgroundImageFix" result="effect1_dropShadow_26_2714"/>
<feColorMatrix in="SourceAlpha" type="matrix" values="0 0 0 0 0 0 0 0 0 0 0 0 0 0 0 0 0 0 127 0" result="hardAlpha"/>
<feOffset dy="2.28845"/>
<feGaussianBlur stdDeviation="3.30553"/>
<feColorMatrix type="matrix" values="0 0 0 0 0 0 0 0 0 0 0 0 0 0 0 0 0 0 0.25 0"/>
<feBlend mode="normal" in2="effect1_dropShadow_26_2714" result="effect2_dropShadow_26_2714"/>
<feBlend mode="normal" in="SourceGraphic" in2="effect2_dropShadow_26_2714" result="shape"/>
</filter>
<radialGradient id="paint0_radial_26_2714" cx="0" cy="0" r="1" gradientUnits="userSpaceOnUse" gradientTransform="translate(76.4652 41.8415) rotate(111.735) scale(12.0578 11.7808)">
<stop offset="0.309996" stop-color="white" stop-opacity="0"/>
<stop offset="1" stop-color="#A6A6A6"/>
</radialGradient>
</defs>
</svg>
