<svg width="55.25" height="42" viewBox="0 0 230 226" fill="none" xmlns="http://www.w3.org/2000/svg">
<g id="Game Controls 1">
<!-- <rect width="230" height="226" fill="white"/> -->
<path id="Vector" d="M194.615 4.34619H35.3846C18.285 4.34619 4.4231 17.9671 4.4231 34.7693V191.231C4.4231 208.033 18.285 221.654 35.3846 221.654H194.615C211.715 221.654 225.577 208.033 225.577 191.231V34.7693C225.577 17.9671 211.715 4.34619 194.615 4.34619Z" fill="white" fill-opacity="0.12"/>
<path id="Vector_2" d="M194.615 4.34619H35.3846C18.285 4.34619 4.4231 17.9671 4.4231 34.7693V191.231C4.4231 208.033 18.285 221.654 35.3846 221.654H194.615C211.715 221.654 225.577 208.033 225.577 191.231V34.7693C225.577 17.9671 211.715 4.34619 194.615 4.34619Z" fill="#3597A5" stroke="url(#paint0_linear_27_6886)" stroke-width="2"/>
<path id="Vector_3" d="M166.999 61.9057L156.691 72.034C146.036 61.6675 131.388 55.2561 115.209 55.2561C91.2167 55.2561 70.5742 69.3342 61.3636 89.5425C58.7774 95.2172 63.2518 101.615 69.5799 101.615C73.0542 101.615 76.1796 99.6064 77.6148 96.4976C84.1053 82.4439 98.5068 72.6407 115.209 72.6407C126.484 72.6407 136.71 77.1146 144.168 84.3397L133.771 94.5558C132.285 96.0161 133.337 98.5129 135.439 98.5129H168.667C169.97 98.5129 171.026 97.4751 171.026 96.1947V63.5447C171.026 61.4798 168.485 60.4454 166.999 61.9057Z" fill="white"/>
<path id="Vector_4" d="M108.952 133.982L137.725 115.133C139.126 114.216 139.126 112.194 137.725 111.276L108.952 92.4279C107.384 91.4009 105.285 92.5052 105.285 94.3567V132.054C105.285 133.905 107.384 135.009 108.952 133.982Z" fill="white"/>
<path id="Vector_5" d="M152.802 129.912C154.238 126.803 157.363 124.795 160.837 124.795C167.165 124.795 171.64 131.193 169.053 136.867C159.843 157.075 139.201 171.154 115.209 171.154C98.9235 171.154 83.9717 164.461 73.2997 153.976L63.0014 164.094C61.5153 165.555 58.9747 164.52 58.9747 162.455V129.805C58.9747 128.525 60.0305 127.487 61.3335 127.487H94.5614C96.6633 127.487 97.7155 129.984 96.2294 131.444L85.8228 141.67C93.2978 149.015 103.827 153.769 115.209 153.769C131.91 153.769 146.312 143.966 152.802 129.912Z" fill="white"/>
</g>
<defs>
<linearGradient id="paint0_linear_27_6886" x1="1.97606e-05" y1="113" x2="230" y2="113" gradientUnits="userSpaceOnUse">
<stop stop-color="#00D2FF"/>
<stop offset="1" stop-color="#FEF686"/>
</linearGradient>
</defs>
</svg>
