<svg width="32" height="32" viewBox="0 0 32 32" fill="none" xmlns="http://www.w3.org/2000/svg">
<path d="M29.2965 14.5298C28.6124 8.3322 23.5055 3.33545 17.2959 2.77067C13.123 2.39111 9.302 3.93611 6.61905 6.61897L4.24373 4.24373C3.9078 3.90772 3.33333 4.14567 3.33333 4.62085V12.1332C3.33333 12.4278 3.57211 12.6666 3.86661 12.6666H11.3791C11.8542 12.6666 12.0922 12.0921 11.7562 11.7561L9.45183 9.45175L9.45069 9.4502C11.5356 7.36556 14.5999 6.25961 17.8853 6.89039C21.5355 7.59115 24.4828 10.5252 25.1968 14.1728C26.3642 20.1368 21.8065 25.3804 16.0471 25.3804C14.0458 25.3804 12.1895 24.7472 10.6681 23.6707C9.89487 23.1235 8.82579 23.2685 8.15603 23.9382C7.27151 24.8227 7.41701 26.2873 8.44403 27.0015C10.6007 28.5012 13.2213 29.3804 16.0471 29.3804C23.9107 29.3804 30.1844 22.573 29.2965 14.5298Z" fill="white"/>
</svg>
